<svg xmlns="http://www.w3.org/2000/svg" width="2200" height="2200" viewBox="0 0 2200 2200">
  <defs>
    <style>
      .cls-1 {
        fill-rule: evenodd;
      }
    </style>
  </defs>
  <path id="veri.zone" class="cls-1" d="M2083,1862.4c0,93.57-21.18,169.42-21.18,169.42S1758.39,2053,1384.1,2053c-575.44,0-672.595-23.68-672.595-23.68L118.026,174.15c29.462-3.454,172.214-15.5,201.538-15.5q98.164,0,206.706,15.5L931.929,1639.1,1342.76,174.15S1398.52,147,1712.37,147c204.69,0,349.45,21.178,349.45,21.178S2083,210.027,2083,337.6c0,93.569-9.48,169.422-21.18,169.422H1625.5L1488.82,930.578h509.46c11.7,0,21.18,75.852,21.18,169.422s-9.48,169.42-21.18,169.42h-618.8l-136.67,423.56h819.01C2073.52,1692.98,2083,1768.83,2083,1862.4Z"/>
</svg>
