<svg height="445pt" viewBox="-30 0 445 445.71429" width="445pt" xmlns="http://www.w3.org/2000/svg"><path d="m338.367188 47.269531h-83.746094v-22.304687c0-13.769532-11.203125-24.964844-24.96875-24.964844h-74.132813c-13.769531 0-24.96875 11.195312-24.96875 24.964844v22.304687h-83.746093c-26.15625 0-46.449219 29.882813-46.449219 55.585938 0 5.054687 4.09375 9.144531 9.144531 9.144531h7.476562l36.019532 325.582031c.511718 4.625 4.429687 8.132813 9.089844 8.132813h261c4.660156 0 8.574218-3.507813 9.089843-8.132813l36.019531-325.582031h7.472657c5.050781 0 9.144531-4.089844 9.144531-9.144531 0-25.703125-20.289062-55.585938-46.445312-55.585938zm-189.53125-22.304687c0-3.679688 3-6.679688 6.683593-6.679688h74.132813c3.683594 0 6.683594 3 6.683594 6.679688v22.304687h-87.5zm-102.03125 40.589844h291.5625c11.882812 0 23.195312 14.105468 26.894531 28.160156h-345.355469c3.699219-14.054688 15.011719-28.160156 26.898438-28.160156zm268.09375 361.875h-244.625l-34.894532-315.429688h314.414063zm0 0"/><path d="m260.410156 390.230469c.507813.089843 1.019532.125 1.519532.125 4.386718 0 8.257812-3.160157 9.007812-7.632813l37.332031-223c.832031-4.980468-2.527343-9.695312-7.511719-10.527344-4.984374-.863281-9.691406 2.527344-10.527343 7.511719l-37.328125 223c-.835938 4.980469 2.527344 9.695313 7.507812 10.523438zm0 0"/><path d="m192.585938 390.355469c5.046874 0 9.140624-4.085938 9.140624-9.140625v-223c0-5.054688-4.09375-9.144532-9.140624-9.144532-5.050782 0-9.144532 4.089844-9.144532 9.144532v223c0 5.054687 4.09375 9.140625 9.144532 9.140625zm0 0"/><path d="m123.242188 390.355469c.5 0 1.007812-.035157 1.515624-.125 4.984376-.828125 8.34375-5.542969 7.511719-10.523438l-37.332031-223c-.835938-4.984375-5.527344-8.375-10.527344-7.511719-4.980468.832032-8.34375 5.546876-7.507812 10.527344l37.328125 223c.75 4.472656 4.621093 7.632813 9.011719 7.632813zm0 0"/></svg>