<svg xmlns="http://www.w3.org/2000/svg" xmlns:xlink="http://www.w3.org/1999/xlink" width="360" height="172" viewBox="0 0 360 172">
  <defs>
    <style>
      .cls-1, .cls-2 {
        fill: #fff;
      }
    </style>
  </defs>
  <path id="vz" class="cls-1" d="M286.383,114.347h39.358v5.006H277.452v-2.086L317.941,63.33H280.37V58.324h46.86v1.49Zm-37.73,5.006L230.9,73.4c-17.051,4.344-40.969,59.491-74.826,59.491-13.2,0-29.952-15.69-39.072-34.89l6-14s16.351,32,38,32c29.065,0,52.86-57.063,70.473-59.07L249.368,106.9a39.409,39.409,0,0,1,1.846,6.377h0.238a37.08,37.08,0,0,1,1.726-6.139l18.757-48.811h5.954l-24.234,61.029h-5Z"/>
  <path id="_8" data-name="8" class="cls-2" d="M180,101c6.41-37.271-4.322-56.97-19-54-58.056,11.746-40.259,88.65-86.45,88.65-27.121,0-45.361-23.281-45.361-53.041C29.189-29.187,111,68,111,68l-9,10c-5.433-10.808-68.583-64.124-57.451,5.089C63.981,203.9,168.1-78.586,196,84Z"/>
</svg>
