<svg xmlns="http://www.w3.org/2000/svg" width="148" height="148" viewBox="0 0 148 148">
  <defs>
    <style>
      .cls-1 {
        fill: #d9d9d8;
        fill-rule: evenodd;
        opacity: 0.5;
      }
    </style>
  </defs>
  <path id="_8" data-name="8" class="cls-1" d="M116.771,30.727L80.726,101.008c27.567,0.086,34.239,1.01,34.239,1.01a70,70,0,0,1,.708,7.277,39.12,39.12,0,0,1-.729,7.669A0.464,0.464,0,0,0,115,117s-13.655,1-30.5,1c-13.024,0-24.136-.6-28.509-0.869a20.013,20.013,0,0,1-7.547,1.27c-9.936,0-14.439-4.735-14.439-12.808a11.714,11.714,0,0,1,4.58-9.7c-3.571-1.785-4.58-6.21-4.58-9.781,0-6.794,3.6-11.41,11.451-12.322L31.22,29.282c1.391-.163,8.131-0.732,9.516-0.732a69.111,69.111,0,0,1,9.76.732L67.507,90.716,91,45V44.988c-30.106-.108-34.1-1.2-34.1-1.2a67.968,67.968,0,0,1-.644-6.843c0-2.335.569-6.72,0.569-6.72S60.5,29,86.5,29C117.49,29,116.771,30.727,116.771,30.727ZM48.444,112.579c6.156,0,7.359-3.183,7.567-5.8l-2.018-6.309a8.526,8.526,0,0,0-5.549-1.554c-6.909,0-7.607,4.192-7.607,6.753C40.836,108.387,41.38,112.579,48.444,112.579ZM40.836,86.186c0,2.639.466,6.986,7.607,6.986a12.243,12.243,0,0,0,3.1-.359L47.277,79.478C41.591,79.929,40.836,83.707,40.836,86.186Z"/>
</svg>
