<?xml version="1.0" encoding="UTF-8"?>
<svg width="1141px" height="346px" viewBox="0 0 1141 346" version="1.1" xmlns="http://www.w3.org/2000/svg" xmlns:xlink="http://www.w3.org/1999/xlink">
    <!-- Generator: Sketch 51.2 (57519) - http://www.bohemiancoding.com/sketch -->
    <title>banner</title>
    <desc>Created with Sketch.</desc>
    <defs>
        <polygon id="path-1" points="0.342534642 0.569283808 97.1882168 0.569283808 97.1882168 124.557372 0.342534642 124.557372"/>
        <polygon id="path-3" points="0.15813721 0.0445155862 103.979227 0.0445155862 103.979227 97.192621 0.15813721 97.192621"/>
        <polygon id="path-5" points="0 0.121795868 66.2175689 0.121795868 66.2175689 20.1660743 0 20.1660743"/>
        <polygon id="path-7" points="0.584448214 0.417628046 46.1745819 0.417628046 46.1745819 60.9473537 0.584448214 60.9473537"/>
        <polygon id="path-9" points="0.109343849 0.0910250247 85.7806306 0.0910250247 85.7806306 135.343331 0.109343849 135.343331"/>
        <polygon id="path-11" points="0 0.198571986 16.231387 0.198571986 16.231387 66.0540423 0 66.0540423"/>
    </defs>
    <g id="---" stroke="none" stroke-width="1" fill="none" fill-rule="evenodd">
        <g id="banner" transform="translate(-15.000000, -4.000000)">
            <g id="Group-2">
                <g id="ilustraciones">
                    <g id="sombras" transform="translate(15.021934, 22.840269)" fill="#E3E9ED">
                        <path d="M973,98.5837488 C974.271691,114.293177 980.253888,126.032564 990.946591,133.801909 C1006.98565,145.455926 1034.17458,154.754027 1053.44652,154.754027 C1072.71845,154.754027 1105.03467,154.325506 1124.53409,129.515348 C1144.0335,104.70519 1140.90107,49.1776927 1138.66301,49.003481 C1137.95067,48.9480318 1112.71679,-8.17235003 1056.6665,1.87341807 C1012.57869,9.7751778 987.054618,55.742198 986.594435,56.8069666 C986.144411,57.8482323 981.612932,71.7738264 973,98.5837488 Z" id="Path-2"/>
                        <path d="M65.2351207,169.187012 C30.1582406,171.682142 5.02212804,201.175485 13.7378527,231.931973 C19.9941302,254.010635 44.4588766,271.64672 69.5361443,274.971163 C88.1177431,277.435133 106.604388,270.62446 119.078158,258.390894 C135.128091,242.649526 137.65842,223.70236 131.209559,207.310245 C122.321312,184.712663 96.3640464,166.972315 65.2351207,169.187012 Z" id="Fill-1"/>
                        <path d="M160.267934,76 C173.475419,84.3678627 179.479188,90.6824858 178.279242,94.9438693 C176.479323,101.335944 159.701069,120.646572 149.92627,126.519263 C140.151472,132.391953 128.579176,143.722738 115.531577,142.091688 C102.483977,140.460639 84.017239,117.302464 80.6233127,119.038302 C77.2293864,120.77414 84.3127844,129.325762 77.2293864,135.708725 C70.1459885,142.091688 61.1003634,148.606776 45.8700888,147.306036 C30.6398143,146.005297 10.2278064,134.259916 5.11390322,130.389589 C1.70463441,127.809372 0,115.994132 0,94.9438693 L160.267934,76 Z" id="Path-6"/>
                    </g>
                    <g id="libreta" opacity="0.7" transform="translate(1052.049893, 290.484370) rotate(17.000000) translate(-1052.049893, -290.484370) translate(952.049893, 227.484370)">
                        <g id="Group-3" transform="translate(4.640149, 0.699220)">
                            <mask id="mask-2" fill="white">
                                <use xlink:href="#path-1"/>
                            </mask>
                            <g id="Clip-2"/>
                            <path d="M93.957342,0.595705069 L97.1882168,0.569283808 C97.1882168,0.569283808 95.4244588,123.337559 94.187616,124.047159 C92.9517787,124.756758 0.904526506,124.651073 0.525429146,124.187758 C0.146331787,123.724442 0.474145419,118.47416 0.474145419,118.47416 L60.7285031,8.95048518 L93.957342,0.595705069 Z" id="Fill-1" fill="#FCDB7E" mask="url(#mask-2)"/>
                        </g>
                        <path d="M11.7271807,0.871429798 C15.4517871,0.491152366 100.075971,0.000471808228 100.075971,0.000471808228 C100.075971,0.000471808228 97.6455247,117.759088 96.928558,120.912654 C96.212597,124.067164 6.85220991,122.307319 4.98789557,122.322417 C4.03763827,122.330909 11.7271807,0.871429798 11.7271807,0.871429798" id="Fill-4" fill="#FFEEB6"/>
                        <path d="M7.28962994,122.354217 C7.28962994,122.354217 92.6579308,123.498823 95.9833286,121.403051 C99.3087263,119.307279 99.8718418,9.74019779 99.8718418,9.74019779" id="Stroke-6" stroke="#FCD250" stroke-width="1.27" stroke-linecap="round" stroke-linejoin="round"/>
                        <path d="M13.0499992,124.054425 L96.1507548,123.657162" id="Stroke-8" stroke="#FCD250" stroke-width="0.635" stroke-linecap="round" stroke-linejoin="round"/>
                        <path d="M24.1308039,10.1371772 C24.1308039,10.1371772 51.0738666,9.99469115 56.5511698,10.0277177 C62.028473,10.0598007 94.0637082,9.92391991 99.8718418,9.73991471" id="Stroke-10" stroke="#FCDB7E" stroke-width="0.635" stroke-linecap="round" stroke-linejoin="round"/>
                        <path d="M24.0090302,20.9080873 C34.8188355,19.7455518 74.7336646,21.2940264 80.0903002,21.0137723 C85.4459303,20.7325746 99.630406,20.9835766 99.630406,20.9835766" id="Stroke-12" stroke="#FCDB7E" stroke-width="0.635" stroke-linecap="round" stroke-linejoin="round"/>
                        <path d="M23.3550118,30.7949231 C25.8739478,30.3967169 95.5755726,30.5580753 99.4258745,30.3297202" id="Stroke-14" stroke="#FCDB7E" stroke-width="0.635" stroke-linecap="round" stroke-linejoin="round"/>
                        <path d="M23.0516334,41.3556897 C30.3339227,40.2214627 45.8236196,42.1700307 47.5763164,41.9907436 C49.3290132,41.8105129 94.9011413,40.2091957 98.1159272,41.1471505" id="Stroke-16" stroke="#FCDB7E" stroke-width="0.635" stroke-linecap="round" stroke-linejoin="round"/>
                        <path d="M22.6263806,52.4367665 C31.1324405,52.4131761 58.2112542,51.7601935 61.3204559,51.0647482 C64.4306632,50.3693028 95.1908441,51.6771553 98.9395841,52.0262933" id="Stroke-18" stroke="#FCDB7E" stroke-width="0.635" stroke-linecap="round" stroke-linejoin="round"/>
                        <path d="M22.7432271,65.0857564 C28.978725,63.8165922 61.0461383,63.4882137 66.9809728,63.1003874 C72.9168129,62.7116174 98.6602386,64.0175826 98.6602386,64.0175826" id="Stroke-20" stroke="#FCDB7E" stroke-width="0.635" stroke-linecap="round" stroke-linejoin="round"/>
                        <path d="M22.4133018,74.8900257 C30.0716718,73.9860412 56.7713882,75.273134 63.1074424,74.4720036 C69.4434967,73.6718169 98.3745581,75.8572326 98.3745581,75.8572326" id="Stroke-22" stroke="#FCDB7E" stroke-width="0.635" stroke-linecap="round" stroke-linejoin="round"/>
                        <path d="M21.3821972,84.2838219 C26.0540442,84.1734188 77.491623,85.9851624 81.1317621,85.7870029 C84.7719012,85.5888435 98.3610835,86.35506 98.3610835,86.35506" id="Stroke-24" stroke="#FCDB7E" stroke-width="0.635" stroke-linecap="round" stroke-linejoin="round"/>
                        <path d="M19.6686168,121.257168 C20.3272607,111.393545 24.5757656,7.63442331 24.2841523,1.10648466" id="Stroke-26" stroke="#FCDB7E" stroke-width="0.635" stroke-linecap="round" stroke-linejoin="round"/>
                        <path d="M20.6407954,97.1438044 C27.2563962,95.8000946 95.5572714,98.9763076 97.791633,98.2723697" id="Stroke-28" stroke="#FCDB7E" stroke-width="0.635" stroke-linecap="round" stroke-linejoin="round"/>
                        <path d="M96.4773618,111.003171 C91.47569,110.88805 21.2069275,108.0204 19.9539956,108.236488" id="Stroke-30" stroke="#FCDB7E" stroke-width="0.635" stroke-linecap="round" stroke-linejoin="round"/>
                        <path d="M8.80380714,115.295116 C6.16520907,115.315876 6.19537597,119.164887 8.83900185,119.143184 C11.4775999,119.121481 11.4464275,115.274357 8.80380714,115.295116" id="Fill-32" fill="#FCDB7E"/>
                        <path d="M9.14258141,109.725514 C6.50398334,109.747218 6.53415024,113.595286 9.17777612,113.573582 C11.8163742,113.552823 11.7852017,109.704755 9.14258141,109.725514" id="Fill-34" fill="#FCDB7E"/>
                        <path d="M9.48045067,104.156479 C6.84185261,104.177238 6.87302507,108.02625 9.51564539,108.004547 C12.1542435,107.982844 12.1240766,104.134776 9.48045067,104.156479" id="Fill-36" fill="#FCDB7E"/>
                        <path d="M9.81922494,98.5868771 C7.18062688,98.6085803 7.21179934,102.456648 9.85441966,102.434945 C12.4930177,102.414185 12.4628508,98.5661175 9.81922494,98.5868771" id="Fill-38" fill="#FCDB7E"/>
                        <path d="M10.1579992,93.0178415 C7.51940115,93.038601 7.55057361,96.8876126 10.1931939,96.8659094 C12.831792,96.8442062 12.8016251,92.9961383 10.1579992,93.0178415" id="Fill-40" fill="#FCDB7E"/>
                        <path d="M10.4967735,87.4482397 C7.85817542,87.4699429 7.88934788,91.3180108 10.5319682,91.2963076 C13.1705663,91.2746044 13.1393938,87.4274801 10.4967735,87.4482397" id="Fill-42" fill="#FCDB7E"/>
                        <path d="M10.8355478,81.8792041 C8.19694969,81.8999637 8.22711659,85.7489752 10.8707425,85.727272 C13.5093405,85.7055688 13.4781681,81.8575009 10.8355478,81.8792041" id="Fill-44" fill="#FCDB7E"/>
                        <path d="M11.174322,76.3096023 C8.53572396,76.3303619 8.56589086,80.1793734 11.2095167,80.1576702 C13.8481148,80.1359671 13.8169423,76.2878992 11.174322,76.3096023" id="Fill-46" fill="#FCDB7E"/>
                        <path d="M11.5130963,70.7400949 C8.87449823,70.7617981 8.90466513,74.609866 11.548291,74.5881628 C14.1868891,74.5674033 14.1557166,70.7193354 11.5130963,70.7400949" id="Fill-48" fill="#FCDB7E"/>
                        <path d="M11.8509656,65.170965 C9.2123675,65.1917245 9.24353996,69.040736 11.8871658,69.0190329 C14.5257639,68.9973297 14.4945914,65.1492618 11.8509656,65.170965" id="Fill-50" fill="#FCDB7E"/>
                        <path d="M12.1897398,59.6014575 C9.55114177,59.6231607 9.58231423,63.4712286 12.2249346,63.4495254 C14.8635326,63.4278223 14.8333657,59.580698 12.1897398,59.6014575" id="Fill-52" fill="#FCDB7E"/>
                        <path d="M12.5285141,54.0323276 C9.88991604,54.0530871 9.9210885,57.9020987 12.5637088,57.8803955 C15.2023069,57.8586923 15.17214,54.0106244 12.5285141,54.0323276" id="Fill-54" fill="#FCDB7E"/>
                        <path d="M12.8672884,48.4628202 C10.2286903,48.4835797 10.2598628,52.3325912 12.9024831,52.3108881 C15.5410812,52.2891849 15.5109143,48.4420606 12.8672884,48.4628202" id="Fill-56" fill="#FCDB7E"/>
                        <path d="M13.2060627,42.8932184 C10.5674646,42.9149216 10.598637,46.7629895 13.2412574,46.7412863 C15.8798554,46.7205267 15.848683,42.8724588 13.2060627,42.8932184" id="Fill-58" fill="#FCDB7E"/>
                        <path d="M13.5134633,37.3241828 C10.8748653,37.345886 10.9060377,41.1939539 13.5486581,41.1722507 C16.1872561,41.1514911 16.1560837,37.3034232 13.5134633,37.3241828" id="Fill-60" fill="#FCDB7E"/>
                        <path d="M13.9150853,31.754581 C11.2764873,31.7753406 11.3066542,35.6243521 13.95028,35.6026489 C16.5888781,35.5809457 16.5577056,31.7328778 13.9150853,31.754581" id="Fill-62" fill="#FCDB7E"/>
                        <path d="M14.222486,26.1855454 C11.583888,26.206305 11.6140549,30.0553165 14.2576807,30.0336133 C16.8962788,30.0119101 16.8651063,26.1638422 14.222486,26.1855454" id="Fill-64" fill="#FCDB7E"/>
                        <path d="M14.5602547,20.6159436 C11.9216567,20.6367032 11.9528291,24.4857147 14.5954494,24.4640115 C17.2350531,24.4423084 17.2038806,20.5951841 14.5602547,20.6159436" id="Fill-66" fill="#FCDB7E"/>
                        <path d="M15.2888859,15.0436997 C12.6502878,15.0644593 12.6814603,18.9134708 15.3240806,18.8917676 C17.9626787,18.8700645 17.9325118,15.0219965 15.2888859,15.0436997" id="Fill-68" fill="#FCDB7E"/>
                        <path d="M15.6276602,9.47409795 C12.9890621,9.49485751 13.0202346,13.343869 15.6628549,13.3221659 C18.3014529,13.3004627 18.271286,9.45333839 15.6276602,9.47409795" id="Fill-70" fill="#FCDB7E"/>
                        <path d="M15.9979086,3.90459054 C13.3593105,3.9253501 13.3894774,7.77436163 16.0331033,7.75265845 C18.6717013,7.73095527 18.6405289,3.88288736 15.9979086,3.90459054" id="Fill-72" fill="#FCDB7E"/>
                        <path d="M10.684311,11.9806263 C10.4047644,11.9183477 10.1242123,11.8551254 9.84567126,11.7390605 C8.31017612,11.0964577 8.0286184,8.8817899 9.50981312,8.01932446 C11.4063055,6.9152932 14.1042318,6.35667226 16.2923375,6.98134636 C16.3657436,6.96436126 16.4401553,6.95586871 16.5135614,6.93699638 C17.5191247,6.67089654 17.308962,5.27434419 16.3607158,5.10260599 C14.2721608,4.72610302 11.5852957,5.4187175 9.59830269,6.06509478 C7.94716777,6.60201254 6.71836943,7.68717147 7.00394941,9.44701616 C7.29757389,11.2502672 8.75061284,12.1570826 10.493254,12.4967845 C10.5374988,12.3193847 10.5978326,12.1448156 10.684311,11.9806263" id="Fill-74" fill="#FCBD24"/>
                        <path d="M10.427993,17.5542857 C10.1172739,17.4910634 9.80655485,17.415574 9.49784692,17.285355 C7.96134621,16.6436958 7.68079406,14.4280843 9.16098321,13.5656189 C11.0574756,12.4625313 13.757413,11.9029667 15.9435076,12.5276408 C16.0189248,12.5106557 16.092331,12.5031068 16.1647315,12.4832908 C17.1713004,12.217191 16.9611376,10.8206386 16.0128915,10.6498441 C13.9253421,10.2733411 11.2374714,10.9668992 9.24947278,11.6123328 C7.59934343,12.148307 6.37054509,13.2334659 6.65612507,14.9942542 C6.95075511,16.8107159 8.42491089,17.7184749 10.1826355,18.0525152 C10.2399526,17.8760589 10.3234144,17.710926 10.427993,17.5542857" id="Fill-76" fill="#FCBD24"/>
                        <path d="M9.86930199,23.0404717 C9.62897237,22.9810239 9.38763718,22.9328995 9.15032424,22.8328761 C7.61281798,22.1902733 7.33327138,19.9756055 8.81346054,19.1131401 C10.7089473,18.0091088 13.4088848,17.4504879 15.5959849,18.075162 C15.6703966,18.0581769 15.7438027,18.0496843 15.8172088,18.030812 C16.8237777,17.7647121 16.613615,16.3681598 15.6633577,16.1973652 C13.5778194,15.8199186 10.8889432,16.5134767 8.90094455,17.159854 C7.25081519,17.6958281 6.02302242,18.7809871 6.30860239,20.5417754 C6.59116568,22.289353 7.96677626,23.1952248 9.63802244,23.5585172 C9.69131729,23.3763992 9.76572898,23.2018302 9.86930199,23.0404717" id="Fill-78" fill="#FCBD24"/>
                        <path d="M9.36843092,28.5436429 C9.18039059,28.4908004 8.99033913,28.4587174 8.80229879,28.3803973 C7.26479252,27.7377945 6.98424037,25.522183 8.46644065,24.6606612 C10.3609219,23.55663 13.0608593,22.998009 15.248965,23.6217395 C15.3213656,23.605698 15.3947717,23.5972055 15.4681778,23.5773895 C16.4747467,23.3112897 16.2645839,21.9147373 15.3153322,21.7439427 C13.2287884,21.3674398 10.5399122,22.0600543 8.5529191,22.7064315 C6.90278974,23.2424057 5.6739914,24.3275646 5.95957138,26.0883529 C6.23710684,27.7981859 7.558417,28.7031141 9.17938502,29.0824479 C9.21759643,28.8974991 9.27692466,28.7172684 9.36843092,28.5436429" id="Fill-80" fill="#FCBD24"/>
                        <path d="M9.5992077,34.2449736 C9.21608808,34.1836385 8.83296847,34.086446 8.45286555,33.9269748 C6.91636485,33.284372 6.63581269,31.0697042 8.11700741,30.2072387 C10.0124942,29.1032075 12.7124316,28.5445865 14.8995318,29.1692606 C14.9739435,29.1522755 15.0473496,29.1447266 15.1207557,29.1249107 C16.126319,28.8588108 15.9161563,27.4622585 14.9679101,27.2905203 C12.8803607,26.9140173 10.19249,27.6075754 8.20549698,28.2530091 C6.55436206,28.7899268 5.32556373,29.8750857 5.6111437,31.6358741 C5.92487944,33.5608516 7.55891979,34.4695543 9.45541215,34.750752 C9.47250672,34.5714649 9.52278489,34.4053884 9.5992077,34.2449736" id="Fill-82" fill="#FCBD24"/>
                        <path d="M8.57896318,39.6103767 C8.42108975,39.5631959 8.26321631,39.5396055 8.10534288,39.4735523 C6.56884217,38.8318932 6.28829002,36.6172253 7.76847917,35.7547599 C9.66396597,34.6507286 12.364909,34.0911641 14.5510035,34.7158382 C14.6264208,34.6988531 14.6998269,34.6913041 14.7722275,34.6724318 C15.7787963,34.4053884 15.5686336,33.008836 14.6193819,32.8380414 C12.532838,32.4615385 9.84496736,33.1550965 7.85596318,33.8005302 C6.20683939,34.337448 4.97804105,35.4226069 5.26362103,37.1824516 C5.53110086,38.8328368 6.76894927,39.7368213 8.31148335,40.1397456 C8.37483384,39.9585712 8.46231784,39.7811713 8.57896318,39.6103767" id="Fill-84" fill="#FCBD24"/>
                        <path d="M7.58224885,44.9168982 C6.21367722,44.1789902 6.00250893,42.127568 7.42135873,41.30096 C9.31684552,40.1978723 12.0157774,39.6383078 14.2038831,40.2629819 C14.2772892,40.2459968 14.3506953,40.2384478 14.425107,40.2186319 C15.4306703,39.9525321 15.2205076,38.5559797 14.2712558,38.3851851 C12.1837065,38.0086822 9.49583579,38.7022403 7.50884273,39.3476739 C5.85770782,39.8845917 4.62991504,40.968807 4.91549502,42.7295953 C5.13873007,44.1091625 6.04574815,44.9640791 7.23633508,45.4434362 C7.3208024,45.2537693 7.43543661,45.077313 7.58224885,44.9168982" id="Fill-86" fill="#FCBD24"/>
                        <path d="M13.9239343,43.9322345 C11.8363849,43.5557315 9.14750867,44.248346 7.16051561,44.8947232 C5.51038626,45.4306974 4.28158792,46.5158563 4.56716789,48.2766446 C4.85978681,50.0770648 6.31081463,50.9848239 8.04742243,51.3254694 C8.0866394,51.1424078 8.15803439,50.9735005 8.2646241,50.8187474 C7.97803856,50.763074 7.69346415,50.6866411 7.40888974,50.568689 C5.87238904,49.9260862 5.59183688,47.7104748 7.07303161,46.8489529 C8.9685184,45.7449217 11.6674503,45.1853571 13.855556,45.8100312 C13.9289621,45.7939897 14.0033738,45.7854972 14.0757743,45.7656812 C15.0823432,45.4995814 14.8721805,44.103029 13.9239343,43.9322345" id="Fill-88" fill="#FCBD24"/>
                        <path d="M8.08694107,56.4111847 C7.74303842,56.348906 7.40114691,56.2573752 7.06126651,56.1158327 C5.52376025,55.4732299 5.24320809,53.2585621 6.72440281,52.3960966 C8.61988961,51.2920654 11.319827,50.7325008 13.5079327,51.3571749 C13.5813389,51.3401898 13.654745,51.3326409 13.7271455,51.3128249 C14.73472,51.0467251 14.5235517,49.6501727 13.5753055,49.4793782 C11.4887617,49.1028752 8.79988544,49.7954897 6.81188682,50.441867 C5.16175747,50.9787847 3.93295913,52.0639436 4.21954467,53.8237883 C4.52121365,55.6836564 6.05670879,56.5942463 7.87074496,56.9075269 C7.91498975,56.7320143 8.00247375,56.5715995 8.08694107,56.4111847" id="Fill-90" fill="#FCBD24"/>
                        <path d="M7.27876985,61.8254672 C7.09072952,61.7726246 6.90067806,61.7405417 6.71364329,61.6622215 C5.17613702,61.0196187 4.89558486,58.8049509 6.37677959,57.9424854 C8.27226638,56.8393978 10.9722038,56.2798332 13.159304,56.9045073 C13.2327101,56.8875222 13.3061162,56.8799733 13.3795223,56.8601574 C14.3850856,56.5940575 14.1749229,55.1975052 13.2266767,55.025767 C11.1391273,54.6502076 8.45125665,55.3428221 6.46426359,55.9891994 C4.81413424,56.5251735 3.5853359,57.6103325 3.86991031,59.3711208 C4.14543465,61.0630251 5.44261129,61.9679532 7.03944579,62.354836 C7.08972396,62.1708308 7.17419127,61.9953181 7.27876985,61.8254672" id="Fill-92" fill="#FCBD24"/>
                        <path d="M6.68468306,67.301934 C6.57909892,67.2660766 6.47049808,67.2538096 6.36491394,67.2094596 C4.82841324,66.5668568 4.54685552,64.352189 6.0290558,63.4897235 C7.92353703,62.3866359 10.6234745,61.8270713 12.8115802,62.4517454 C12.8849863,62.4347603 12.9583924,62.4262678 13.0317985,62.4073954 C14.0373618,62.1412956 13.8282047,60.7447432 12.8789529,60.573005 C10.7914035,60.1965021 8.10353286,60.8900602 6.11754537,61.5364374 C4.46540489,62.0724116 3.23660655,63.1575705 3.52218653,64.9183588 C3.79167749,66.5753493 5.03857596,67.4812211 6.59116568,67.8813145 C6.58010448,67.6812678 6.61228251,67.4859392 6.68468306,67.301934" id="Fill-94" fill="#FCBD24"/>
                        <path d="M6.66799071,72.9442886 C6.44978348,72.8876716 6.23157625,72.8470961 6.01739127,72.7565089 C4.47887944,72.1139061 4.19933284,69.8992383 5.68052757,69.0367729 C7.5750088,67.9327416 10.2749462,67.3741207 12.4630519,67.9987947 C12.5364581,67.9818097 12.6108697,67.9733171 12.6832703,67.9544448 C13.6898391,67.6883449 13.4796764,66.2917926 12.5304247,66.120998 C10.4438809,65.7435514 7.75500463,66.4371095 5.76700601,67.0834868 C4.11687665,67.6194609 2.88908388,68.7046199 3.17466385,70.4654082 C3.46024383,72.2186475 4.84289335,73.1245193 6.52117847,73.4859244 C6.54732312,73.3028629 6.59659572,73.1226321 6.66799071,72.9442886" id="Fill-96" fill="#FCBD24"/>
                        <path d="M6.33605427,78.4963391 C6.11281922,78.4387785 5.89058974,78.3963158 5.66836025,78.3038413 C4.13185955,77.6612385 3.85030183,75.4465707 5.33250211,74.5841053 C7.22798891,73.480074 9.92692077,72.9214531 12.1150265,73.5451836 C12.1884326,73.5291421 12.2618387,73.5206495 12.3362504,73.5017772 C13.3418137,73.2347337 13.131651,71.839125 12.1813937,71.6673868 C10.0948498,71.2908838 7.40697917,71.9844419 5.41998612,72.6298756 C3.7688512,73.1667934 2.54105843,74.2519523 2.8266384,76.0127406 C3.11523506,77.7895704 4.5330793,78.6963858 6.24253689,79.0474111 C6.24555358,78.855857 6.27471491,78.6709082 6.33605427,78.4963391" id="Fill-98" fill="#FCBD24"/>
                        <path d="M6.04142423,84.0584863 C5.8010946,83.9999821 5.55975941,83.950914 5.31942979,83.8508907 C3.78393465,83.2082879 3.50237693,80.9936201 4.98357165,80.1311546 C6.88006401,79.0271234 9.57899587,78.4685024 11.7671016,79.0922329 C11.8405077,79.0761914 11.9139138,79.0676989 11.9873199,79.0478829 C12.9928832,78.7827267 12.7827205,77.3861743 11.8344743,77.2144361 C9.74692494,76.8379332 7.05905428,77.5314913 5.07206122,78.1769249 C3.42193187,78.7138427 2.19212797,79.7990016 2.47770794,81.5597899 C2.76429348,83.3196346 4.15800419,84.2255064 5.84533939,84.5840807 C5.88556192,84.4010191 5.94991797,84.2236192 6.04142423,84.0584863" id="Fill-100" fill="#FCBD24"/>
                        <path d="M5.66242743,89.59676 C5.43215343,89.5382558 5.20087388,89.4939058 4.97160545,89.3976569 C3.43510475,88.7550541 3.15455259,86.5403863 4.63574731,85.6779209 C6.53123411,84.5748332 9.23117153,84.0152687 11.4182717,84.6399428 C11.4926834,84.6229577 11.5660895,84.6154087 11.63849,84.5955928 C12.6450589,84.329493 12.4348962,82.9329406 11.48665,82.7612024 C9.3991006,82.3846994 6.71122993,83.0782575 4.72323132,83.7246348 C3.07310196,84.260609 1.84430362,85.3457679 2.1298836,87.1065562 C2.40339681,88.7871371 3.68347888,89.6930089 5.26522993,90.0836661 C5.35874731,89.9119279 5.49248723,89.7496259 5.66242743,89.59676" id="Fill-102" fill="#FCBD24"/>
                        <path d="M4.44569585,94.8382664 C3.0801409,94.098471 2.87098374,92.0498797 4.28782241,91.2251589 C6.18330921,90.1211277 8.88224107,89.5625067 11.0703468,90.1871808 C11.1437529,90.1701957 11.217159,90.1617032 11.2915707,90.1428309 C12.2981396,89.876731 12.0869713,88.4801787 11.1377195,88.3084405 C9.05017014,87.9319375 6.36229947,88.6254956 4.37530642,89.2718729 C2.7241715,89.807847 1.49637873,90.8930059 1.78296426,92.6537943 C2.00016593,93.9984477 2.86997818,94.8420408 4.01632033,95.3289469 C4.13397123,95.1439981 4.28178903,94.9816961 4.44569585,94.8382664" id="Fill-104" fill="#FCBD24"/>
                        <path d="M3.98514786,100.750118 C4.06659849,100.650094 4.17017151,100.570831 4.26670558,100.486849 C2.73925495,99.8395279 2.46071392,97.6333527 3.93989752,96.7727744 C5.83538431,95.6687432 8.53431617,95.1091786 10.7224219,95.7338527 C10.7948224,95.7178113 10.8702397,95.7093187 10.9436458,95.6895028 C11.9492091,95.4234029 11.7390464,94.0268506 10.7908002,93.856056 C8.70224524,93.4786094 6.01437458,94.1721675 4.02738152,94.8185448 C2.3762466,95.3545189 1.14845383,96.4396778 1.4340338,98.2004661 C1.66330223,99.6140036 2.60551503,100.480244 3.84034675,100.952995 C3.88961935,100.885999 3.92984188,100.816171 3.98514786,100.750118" id="Fill-106" fill="#FCBD24"/>
                        <path d="M3.91938402,106.033993 C2.38992226,105.385728 2.11339236,103.180496 3.59157039,102.318975 C5.48705719,101.215887 8.18598905,100.656322 10.3740948,101.280996 C10.4475009,101.264011 10.520907,101.256462 10.5953187,101.236646 C11.6018875,100.970547 11.3907192,99.5739943 10.4414675,99.4031997 C8.35492368,99.0266967 5.66604745,99.7193112 3.6790544,100.365688 C2.02791948,100.902606 0.799121144,101.986822 1.08671224,103.74761 C1.31698624,105.168696 2.26623798,106.037767 3.51313646,106.508632 C3.63078736,106.336893 3.76452728,106.176479 3.91938402,106.033993" id="Fill-108" fill="#FCBD24"/>
                        <path d="M3.34098402,111.44318 C2.03073506,110.676019 1.84772254,108.679327 3.24243882,107.86593 C5.13893118,106.762842 7.8388686,106.203277 10.0249632,106.827951 C10.1003804,106.810966 10.172781,106.803417 10.2461871,106.784545 C11.252756,106.517502 11.0425932,105.120949 10.0933415,104.950155 C8.00679767,104.573652 5.31892701,105.26721 3.33092839,105.912643 C1.68079903,106.449561 0.452000698,107.533777 0.737580671,109.294565 C0.950760088,110.611853 1.78939987,111.44601 2.90155287,111.936691 C3.02825384,111.751742 3.17406052,111.585666 3.34098402,111.44318" id="Fill-110" fill="#FCBD24"/>
                        <path d="M9.74551715,110.496827 C7.65796777,110.120324 4.9700971,110.813882 2.98209848,111.460259 C1.33196913,111.996233 0.103170793,113.081392 0.388750767,114.841237 C1.0041555,118.62797 6.72379948,118.49492 9.52127654,117.353144 C9.85713468,117.216319 9.9908746,116.938896 9.98081896,116.668078 C9.93657418,116.702048 9.9003739,116.749229 9.85411799,116.777538 C9.21156305,117.171026 8.36085651,117.201221 7.62377862,117.311625 C6.14560059,117.533374 4.67345593,117.736252 3.23047262,117.133281 C1.69397191,116.490678 1.41341976,114.27601 2.89562004,113.413545 C4.79010127,112.309514 7.4900387,111.750893 9.67814441,112.375567 C9.75155053,112.358582 9.82495665,112.350089 9.89836277,112.331217 C10.9039261,112.065117 10.6937633,110.668565 9.74551715,110.496827" id="Fill-112" fill="#FCBD24"/>
                        <path d="M2.54658902,118.960311 C4.44308138,117.857224 7.14100768,117.297659 9.3291134,117.922333 C9.40251952,117.905348 9.47793676,117.897799 9.55033732,117.877983 C10.5569062,117.611883 10.3467434,116.215331 9.3974917,116.044536 C7.30994232,115.66709 4.62106609,116.360648 2.63507859,117.007025 C0.982938113,117.542999 -0.243849097,118.628158 0.0417308764,120.388947 C0.39770028,122.586629 2.76278513,123.456644 4.99111338,123.582145 C4.96496873,123.402858 4.92575176,123.247161 4.92273507,123.06693 C4.32945273,123.034847 3.467685,122.925388 2.88345273,122.680047 C1.34695202,122.037445 1.0653943,119.822777 2.54658902,118.960311" id="Fill-114" fill="#FCBD24"/>
                        <path d="M193.910914,79.4519395 C194.867204,78.9820185 197.539992,77.4646832 198.246903,77.8430734 C198.952808,78.2214636 199.961388,79.2622726 199.758264,80.0199966 C199.557152,80.776777 194.717375,82.668728 194.717375,82.668728 L193.910914,79.4519395 Z" id="Fill-116" fill="#FFB229"/>
                        <path d="M109.117594,116.918797 C109.117594,116.918797 113.755252,112.566838 119.40149,109.538773 C125.047728,106.511651 190.785422,79.2628388 193.204807,78.6947816 C195.625198,78.1276682 197.037009,81.7228469 196.43166,82.8580175 C195.826311,83.9931881 126.056308,113.323618 122.829455,114.837179 C119.603608,116.35074 109.117594,116.918797 109.117594,116.918797" id="Fill-118" fill="#FCDB7E"/>
                        <path d="M118.70383,109.927354 C113.379372,112.925224 109.117795,116.918608 109.117795,116.918608 C109.117795,116.918608 117.751561,116.451518 121.760742,115.234253 C121.437956,113.236617 120.500772,111.43714 118.70383,109.927354" id="Fill-120" fill="#FFB229"/>
                        <path d="M172.166613,94.6530344 C172.166613,94.6530344 192.398547,86.0746172 193.910914,85.3178368 C195.423281,84.5610564 196.363483,83.6778314 195.692772,81.912325 C195.021056,80.145875 193.272381,78.3850867 191.659458,78.6342015 C190.045528,78.8842598 188.05753,79.9090273 188.37931,80.5318142 C189.777043,80.3978206 191.389967,82.921051 191.389967,84.0562216 C187.491398,86.0746172 176.602153,89.9859074 174.451253,91.121078 C172.301359,92.2562486 170.261071,95.4617137 172.166613,94.6530344" id="Fill-122" fill="#FFB229"/>
                        <path d="M188.37931,80.5319085 C189.812238,80.4498139 191.585046,82.3700734 191.389967,84.056316 C185.425971,86.661641 172.477332,90.6880525 171.565286,94.0076951" id="Stroke-124" stroke="#FCA120" stroke-width="0.635" stroke-linecap="round" stroke-linejoin="round"/>
                        <path d="M191.404849,79.2644429 C192.776437,78.9077559 194.587457,80.9157717 194.598518,81.8357977" id="Stroke-126" stroke="#FFEEB6" stroke-width="0.635" stroke-linecap="round" stroke-linejoin="round"/>
                        <path d="M112.543749,115.147157 C114.033994,114.605521 118.504728,111.609539 118.504728,111.609539" id="Stroke-128" stroke="#FFEEB6" stroke-width="0.635" stroke-linecap="round" stroke-linejoin="round"/>
                        <path d="M196.571131,79.222452 L198.007076,78.6345789" id="Stroke-130" stroke="#FFEEB6" stroke-width="0.635" stroke-linecap="round" stroke-linejoin="round"/>
                    </g>
                    <g id="planta" transform="translate(960.000000, 4.000000)">
                        <g id="Group-3" transform="translate(22.955236, 59.494950)">
                            <mask id="mask-4" fill="white">
                                <use xlink:href="#path-3"/>
                            </mask>
                            <g id="Clip-2"/>
                            <path d="M103.979227,84.5017567 C102.865339,89.1431546 75.9816059,95.526299 59.7110879,96.9244451 C43.4405698,98.3225912 31.0135633,94.5443843 16.2977241,78.9985643 C1.58188488,63.4527444 -2.85282158,31.6878714 2.10457862,19.604593 C7.06048967,7.52131469 74.7202908,0.0445155862 74.7202908,0.0445155862 L101.538501,30.965752 L103.979227,84.5017567 Z" id="Fill-1" fill="#FCD250" mask="url(#mask-4)"/>
                        </g>
                        <path d="M117.433946,19.7501285 C104.791012,13.6547145 66.9992116,3.56599413 35.0583053,39.1216448 C9.17230724,67.9365832 20.5003167,116.979245 64.3157526,142.06207 C108.131188,167.143497 155.645688,136.132869 167.238767,115.926096 C178.833335,95.7193239 171.542428,63.2490925 156.813186,46.854049 C141.745906,30.0818832 126.537156,24.1401116 117.433946,19.7501285" id="Fill-4" fill="#FFEEB6"/>
                        <path d="M141.746055,137.793185 C110.601847,150.555283 76.6431345,148.436414 52.5724175,129.408498 C28.5017006,110.380583 20.6166197,78.9006464 23.1139343,66.2279398" id="Stroke-6" stroke="#F8FAFB" stroke-width="1.27" stroke-linecap="round" stroke-linejoin="round"/>
                        <path d="M61.2604513,21.6133921 C90.9750693,4.17916708 139.977235,25.3832185 157.711594,50.3459223 C175.442974,75.3100229 181.301313,117.152442 139.406889,134.974964 C97.5109749,152.797485 61.4853138,139.261587 39.430914,106.12371 C17.375025,72.9844353 22.7910853,44.1862578 61.2604513,21.6133921" id="Fill-8" fill="#00AF80"/>
                        <path d="M111.078824,119.096019 C124.95329,121.710734 138.614807,135.674037 141.182112,143.317049 C144.147021,134.883476 135.000625,113.440581 123.781324,110.891513 C112.562023,108.343843 101.061272,115.379269 111.078824,119.096019" id="Fill-10" fill="#4AD295"/>
                        <path d="M71.4023479,42.6552809 C73.9398697,32.9869821 67.1999498,19.9455337 58.1771538,16.4899759 C67.7434917,12.0650741 78.0797233,17.8727577 82.1332058,22.1384301 C86.1866884,26.4027058 93.1484925,37.8895722 90.8760405,43.3815905 C88.6035885,48.8708154 70.5163002,53.68122 71.4023479,42.6552809" id="Fill-12" fill="#4AD295"/>
                        <path d="M100.020649,34.1581564 C107.256458,17.6541665 132.582534,10.7011483 132.582534,10.7011483 C132.582534,10.7011483 141.003711,23.3110012 133.024813,32.0825869 C125.048894,40.8541726 100.020649,34.1581564 100.020649,34.1581564" id="Fill-14" fill="#69E781"/>
                        <polyline id="Fill-16" fill="#4AD295" points="100.020649 114.905073 61.5587292 84.2729633 113.711949 41.0743003 145.136118 68.1195574 116.728979 107.032993 98.8293246 115.926096"/>
                        <path d="M52.5727154,123.56855 C54.8004927,112.475567 66.1970033,102.477635 74.2384455,101.221958 C82.2798877,99.9676767 83.4533426,110.605319 80.9604955,112.394555 C78.4706267,114.185188 76.3292205,113.460275 70.2460183,114.904514 C64.1628162,116.350149 54.7305024,121.096304 52.5727154,125.044914" id="Fill-18" fill="#69E781"/>
                        <path d="M78.6417307,104.448448 C79.8598603,99.0444254 93.5452036,97.692372 96.8913371,112.833135 C92.2526162,113.556651 82.3810014,117.839084 78.6417307,114.125128 C74.9039493,110.409775 78.6417307,104.448448 78.6417307,104.448448" id="Fill-20" fill="#69E781"/>
                        <path d="M65.8122054,89.0146479 C47.915529,80.7053862 19.2760815,94.9298812 11.2912273,101.120274 C16.3618033,88.0634616 42.959618,66.7574475 57.2793417,76.0570044 C71.5990655,85.3551647 65.8122054,89.0146479 65.8122054,89.0146479" id="Fill-22" fill="#4AD295"/>
                        <path d="M59.2870218,106.691628 C49.6253779,100.14227 33.8730861,95.4296381 25.0602611,98.9159244 C29.7749289,91.4042066 40.3196423,89.6456992 57.2781504,95.4338284 C74.2381476,101.221958 59.2870218,106.691628 59.2870218,106.691628" id="Fill-24" fill="#4AD295"/>
                        <g id="Group-28" transform="translate(0.000000, 78.232523)">
                            <mask id="mask-6" fill="white">
                                <use xlink:href="#path-5"/>
                            </mask>
                            <g id="Clip-27"/>
                            <path d="M52.5727154,18.5018187 C33.4593986,6.47720386 9.5003683,6.91857664 -0.000446746789,9.21622927 C11.70283,3.76192318 45.8834268,-2.30555586 54.335876,1.11787672 C62.7868361,4.53991255 77.0559286,26.2649515 52.5727154,18.5018187" id="Fill-26" fill="#69E781" mask="url(#mask-6)"/>
                        </g>
                        <path d="M60.9593439,69.5100214 C46.2643529,57.2004696 37.1998605,42.7888101 44.623303,14.9320417 C47.850304,31.6176091 49.3394599,49.6733875 76.5091105,55.1807701 C103.68025,60.6881527 84.4909865,86.1844147 60.9593439,69.5100214" id="Fill-29" fill="#4AD295"/>
                        <path d="M48.9923377,42.9874279 C51.6370787,49.2616258 63.4371505,62.2499977 67.8778136,63.2542605" id="Stroke-31" stroke="#2BC48A" stroke-width="1.27" stroke-linecap="round" stroke-linejoin="round"/>
                        <path d="M51.2813193,78.6243694 C37.5900194,61.0756109 16.150641,57.7010646 8.69443709,60.1635336 C1.23972234,62.6246059 28.7191173,38.8142203 64.7060603,64.1903619 C100.693003,89.5679003 65.7991008,94.2358365 51.2813193,78.6243694" id="Fill-33" fill="#4AD295"/>
                        <path d="M76.0851478,62.9675079 C62.2940744,50.0364027 61.4065375,29.2318216 63.5419871,17.645786 C70.2208516,33.6790714 78.9339031,45.4648422 94.6117371,52.6888296 C110.29106,59.9128171 97.646637,91.979388 76.0851478,62.9675079" id="Fill-35" fill="#69E781"/>
                        <path d="M90.8763383,43.3810318 C75.4859114,38.2088691 50.7093345,41.1895322 46.8151917,57.9156053 C57.8304783,51.2614915 77.8432453,54.8874527 84.1959847,58.8332696 C90.5457457,62.7804831 107.949511,50.2237068 90.8763383,43.3810318" id="Fill-37" fill="#69E781"/>
                        <g id="Group-41" transform="translate(66.140759, 0.251648)">
                            <mask id="mask-8" fill="white">
                                <use xlink:href="#path-7"/>
                            </mask>
                            <g id="Clip-40"/>
                            <path d="M30.7502806,52.4373216 C33.8224093,41.8080593 15.2630585,6.2621859 0.584448214,0.416789997 C28.0400167,1.15846389 43.4393785,27.612896 45.6373727,33.9066484 C47.8338778,40.1990041 43.376834,77.3706937 30.7502806,52.4373216" id="Fill-39" fill="#69E781" mask="url(#mask-8)"/>
                        </g>
                        <path d="M108.318673,30.799952 C90.9149074,29.5666224 74.8186206,41.52559 88.0795545,69.5094627 C88.1212509,53.8435223 99.6636987,38.3312244 107.386462,37.3060104 C115.109224,36.2793996 108.318673,30.799952 108.318673,30.799952" id="Fill-42" fill="#8DF690"/>
                        <path d="M75.6430174,120.787343 C88.701426,124.944069 97.5738173,148.370348 98.3883856,154.222728 C99.2029539,160.075108 109.496,128.29068 96.3661118,119.225777 C83.2347345,110.160874 69.4853575,109.708327 75.6430174,120.787343" id="Fill-44" fill="#4AD295"/>
                        <path d="M87.8266958,155.766834 C88.1647342,143.170949 102.993749,118.191484 114.765527,118.736216 C116.832476,118.832592 118.903892,118.509943 120.728108,117.590882 C136.81397,109.485546 117.472813,101.852311 109.462643,103.207157 C100.926801,104.651396 83.1567027,117.044753 87.8266958,155.766834" id="Fill-46" fill="#69E781"/>
                        <path d="M100.020649,74.1755831 C85.09335,76.0570044 60.3078382,66.119133 50.3945269,57.9146275 C71.047631,85.8719619 85.6220004,90.5748169 96.235215,87.4474951 C106.84843,84.3215702 107.015215,74.0596529 100.020649,74.1755831" id="Fill-48" fill="#69E781"/>
                        <path d="M101.085098,67.5246819 C106.020161,43.253369 145.572143,30.1057676 158.429516,32.0304882 C137.176282,21.3439591 111.829358,26.7228408 102.315141,36.7961969 C92.8024126,46.8695529 80.1788375,66.4827069 101.085098,67.5246819" id="Fill-50" fill="#4AD295"/>
                        <path d="M124.088537,41.5504522 C138.522926,37.1478983 153.654239,25.1875339 148.97829,16.7860868 C157.243105,24.6567692 157.30565,49.11804 148.323061,52.3850367 C139.341962,55.6520333 119.515339,60.1342019 113.732946,55.1813288 C107.949065,50.227059 114.89151,43.4639988 124.088537,41.5504522" id="Fill-52" fill="#69E781"/>
                        <path d="M122.82335,59.8848821 C134.660651,48.6773656 159.720167,60.2242922 184.779684,52.3843383 C173.435294,61.7271945 156.140236,74.9488235 136.03812,74.0828389 C115.934515,73.2154576 118.421405,64.3768279 122.82335,59.8848821" id="Fill-54" fill="#4AD295"/>
                        <path d="M133.024962,79.0506573 C156.715944,79.007358 177.336287,87.3501417 180.645191,92.8100348 C176.243246,78.640013 165.490051,67.5679811 154.34223,66.6461265 C143.197386,65.724272 120.446062,74.8743768 133.024962,79.0506573" id="Fill-56" fill="#69E781"/>
                        <path d="M133.024962,84.1758892 C143.484793,79.5652197 152.845628,83.530591 157.247573,110.529755 C163.168457,94.813532 159.713615,74.8456038 148.97829,69.5100214 C138.241475,64.1758357 132.789675,73.2351518 133.024962,84.1758892" id="Fill-58" fill="#4AD295"/>
                        <path d="M132.132064,101.31135 C151.230489,99.9788507 172.710075,103.113156 179.044944,109.295169 C173.450185,97.3711197 157.556424,83.2946801 143.893418,81.6646736 C130.230412,80.0332704 112.029948,101.136756 132.132064,101.31135" id="Fill-60" fill="#69E781"/>
                        <path d="M115.736755,89.9599678 C123.647151,70.1149535 139.588566,61.3014653 150.341761,60.801429 C140.167847,69.3411544 130.625336,93.3205467 129.338705,100.702367 C128.052075,108.085584 103.421435,106.704199 115.736755,89.9599678" id="Fill-62" fill="#8DF690"/>
                        <path d="M105.93796,57.9151862 C112.630226,45.5776995 128.878407,40.6667289 140.718686,43.3806128 C132.182844,49.9690794 125.356553,63.0510335 119.268884,70.1995965 C113.181214,77.3481595 92.7246787,72.703968 105.93796,57.9151862" id="Fill-64" fill="#4AD295"/>
                        <path d="M99.2949837,106.739397 C100.045518,76.3098161 120.028502,46.105112 136.038418,45.0100606 C126.950099,54.6182991 116.00927,93.9759014 117.072528,101.67618 C118.137274,109.376459 95.3204264,118.824072 99.2949837,106.739397" id="Fill-66" fill="#69E781"/>
                        <path d="M105.337383,73.7766715 C106.010481,60.9098168 118.1337,30.6045468 125.158049,24.7898794 C104.644925,33.9553484 87.6298294,55.6817841 89.8025079,73.1020416 C91.9766757,90.5209023 104.65386,82.8625258 105.337383,73.7766715" id="Fill-68" fill="#69E781"/>
                        <path d="M71.4023479,99.5919511 C60.5910757,84.1229524 43.2051798,67.5728697 38.2775627,66.5490525 C44.3354492,64.434374 63.2998504,72.8791204 76.5101529,88.5646152 C87.2961095,101.368616 75.3545679,105.248786 71.4023479,99.5919511" id="Fill-70" fill="#69E781"/>
                        <path d="M91.0900322,95.4343871 C81.2377763,83.8050523 65.7743808,86.0286772 52.5730132,89.0149272 C68.8450204,93.6200097 71.4123253,104.162674 74.2387433,107.605661 C77.0651613,111.048648 107.001664,109.387913 91.0900322,95.4343871" id="Fill-72" fill="#69E781"/>
                        <path d="M74.2381476,107.605521 C54.2492072,108.084606 36.8662896,122.694604 36.4716633,123.397169 C45.7133652,102.40263 62.6674058,93.5207008 71.4027947,94.9914779 C80.1352053,96.4608582 83.7806591,106.35543 74.2381476,107.605521" id="Fill-74" fill="#8DF690"/>
                        <path d="M84.8178562,98.1637749 C82.3384115,86.1293828 69.3216992,73.2960501 60.9600885,69.5094627 C76.2328721,70.3111968 95.596367,90.3210275 99.2954305,102.81914 C102.991516,115.317253 84.8178562,98.1637749 84.8178562,98.1637749" id="Fill-76" fill="#8DF690"/>
                        <path d="M90.227662,89.0146479 C94.095,72.0441436 132.326101,52.1572268 147.44848,54.7035008 C132.457147,59.7848749 99.7612384,99.7989494 99.2951326,104.448728 C98.8260485,109.09711 80.8534252,100.819973 90.227662,89.0146479" id="Fill-78" fill="#8DF690"/>
                        <path d="M89.5194194,105.047933 C71.6152973,107.750643 65.2089483,122.329913 65.3742446,134.837803 C69.6719487,125.648589 92.3666856,116.350429 100.020947,117.384023 C107.67372,118.416221 102.810136,102.931858 89.5194194,105.047933" id="Fill-80" fill="#8DF690"/>
                        <path d="M91.1510876,120.27306 C105.746305,122.032964 122.264023,135.673618 125.157453,143.318027 C124.747935,128.490136 112.915102,109.667542 105.336787,107.32659 C97.7599617,104.985638 77.9333393,112.829782 91.1510876,120.27306" id="Fill-82" fill="#8DF690"/>
                        <path d="M110.962521,111.30132 C137.689892,111.70079 144.657653,114.823921 154.116771,140.254536 C158.619979,116.608967 147.336644,100.381534 127.091569,98.1634956 C106.847983,95.9454577 98.5444491,110.727256 110.962521,111.30132" id="Fill-84" fill="#8DF690"/>
                        <path d="M56.3233036,104.848897 C62.8621874,101.215952 74.0114981,95.3160824 79.433515,100.701948" id="Stroke-86" stroke="#69E781" stroke-width="1.27" stroke-linecap="round" stroke-linejoin="round"/>
                        <path d="M119.769389,67.9358849 C106.99392,77.858392 97.8236976,88.5435243 96.891486,92.8105935" id="Stroke-88" stroke="#69E781" stroke-width="1.27" stroke-linecap="round" stroke-linejoin="round"/>
                        <path d="M88.5611475,103.050442 C88.0801502,98.7526444 88.5149837,89.7757366 84.5136216,86.6260669" id="Stroke-90" stroke="#69E781" stroke-width="1.27" stroke-linecap="round" stroke-linejoin="round"/>
                        <path d="M99.2949837,106.739397 C90.6012912,106.536868 76.6776829,114.270669 72.4931547,122.565963" id="Stroke-92" stroke="#69E781" stroke-width="1.27" stroke-linecap="round" stroke-linejoin="round"/>
                        <path d="M103.656275,105.414301 C112.515264,99.8398741 134.426704,100.018658 145.135225,112.446933" id="Stroke-94" stroke="#69E781" stroke-width="1.27" stroke-linecap="round" stroke-linejoin="round"/>
                        <path d="M43.9679255,84.1758892 C54.981723,84.9538786 69.7973357,92.8105935 69.7973357,92.8105935" id="Stroke-96" stroke="#4AD295" stroke-width="1.27" stroke-linecap="round" stroke-linejoin="round"/>
                        <path d="M69.7968889,41.07444 C73.8950461,50.0653154 84.941605,61.6862697 87.5238015,63.2534225" id="Stroke-98" stroke="#4AD295" stroke-width="1.27" stroke-linecap="round" stroke-linejoin="round"/>
                        <path d="M95.1067326,74.4163827 C95.4879565,66.6225215 98.7983502,59.0828687 102.993303,52.3854557" id="Stroke-100" stroke="#69E781" stroke-width="1.27" stroke-linecap="round" stroke-linejoin="round"/>
                        <path d="M130.110684,77.526245 C124.961182,81.7011288 121.147454,88.4935207 121.147454,88.4935207" id="Stroke-102" stroke="#69E781" stroke-width="1.27" stroke-linecap="round" stroke-linejoin="round"/>
                        <path d="M158.429367,93.8242145 C150.809356,89.0934245 136.459849,90.2750745 136.459849,90.2750745" id="Stroke-104" stroke="#4AD295" stroke-width="1.27" stroke-linecap="round" stroke-linejoin="round"/>
                        <path d="M148.383372,38.5168523 C146.081137,43.856625 138.787251,45.0089432 138.787251,45.0089432" id="Stroke-106" stroke="#2BC48A" stroke-width="1.27" stroke-linecap="round" stroke-linejoin="round"/>
                        <path d="M115.504149,126.832613 C112.353095,120.137994 106.995111,115.925398 106.995111,115.925398" id="Stroke-108" stroke="#69E781" stroke-width="1.27" stroke-linecap="round" stroke-linejoin="round"/>
                        <path d="M36.4712165,58.0762314 C40.1643233,57.7535823 46.8148938,61.1993629 46.8148938,61.1993629" id="Stroke-110" stroke="#2BC48A" stroke-width="1.27" stroke-linecap="round" stroke-linejoin="round"/>
                        <path d="M91.3212981,15.2345776 C96.5899319,19.61199 98.1714155,24.7897397 98.1714155,24.7897397" id="Stroke-112" stroke="#4AD295" stroke-width="1.27" stroke-linecap="round" stroke-linejoin="round"/>
                        <path d="M119.769389,35.0652054 C124.330674,31.7339583 131.320772,31.9099487 131.320772,31.9099487" id="Stroke-114" stroke="#2BC48A" stroke-width="1.27" stroke-linecap="round" stroke-linejoin="round"/>
                    </g>
                    <g id="camara" transform="translate(101.088463, 100.532267) rotate(-135.000000) translate(-101.088463, -100.532267) translate(29.588463, 30.032267)">
                        <g id="Group-3" transform="translate(37.455034, 4.951089)">
                            <mask id="mask-10" fill="white">
                                <use xlink:href="#path-9"/>
                            </mask>
                            <g id="Clip-2"/>
                            <path d="M23.5434244,0.0910250247 C11.8554293,3.9390217 -2.76924299,13.9446976 0.601710057,27.7081414 C2.75790525,36.5098809 15.8165522,29.9656327 16.7883585,37.6855102 C17.761177,45.4045031 10.4564331,66.7825572 10.4564331,66.7825572 C10.4564331,66.7825572 6.25337097,112.556026 14.1543585,113.56712 C22.0553461,114.57733 26.1146619,123.701947 26.9720785,128.416849 C27.8274705,133.132635 37.1659215,135.041595 43.9098522,135.215861 C50.6537828,135.390126 61.7030178,135.921769 72.5022151,132.130387 C77.3622589,130.423999 79.9871481,129.830435 84.8957821,123.502028 C89.8064408,117.173622 72.6763304,17.3680878 72.6763304,17.3680878 L23.5434244,0.0910250247 Z" id="Fill-1" fill="#1273EB" mask="url(#mask-10)"/>
                        </g>
                        <path d="M80.6907966,109.425437 C96.0261022,111.801464 88.3913491,125.094303 93.5803897,128.563692 C98.7694304,132.033966 115.224338,133.414821 122.350917,128.453117 C129.477497,123.491413 131.053645,111.32909 126.136913,97.0463876 L124.685277,56.0072819 C124.685277,56.0072819 124.731843,55.7206725 124.802703,55.2376826 C120.483227,50.4776665 119.459794,44.4376386 119.617712,38.5276465 C119.696671,35.6049382 120.037816,32.6954989 120.332395,29.7860596 C120.593568,27.2118825 120.275706,23.0763918 123.020046,21.4018498 C123.32981,21.2125461 123.354105,20.8091699 123.534294,20.5190221 C124.251001,19.3672769 123.713471,16.5356821 123.716508,15.1893255 C123.722581,12.2506945 123.706385,9.30056373 123.497851,6.36900948 C122.894521,-2.07092989 85.5467911,-1.71709111 60.9985595,5.04211408 C47.1270371,8.86091905 49.2275559,25.386959 58.2248624,33.6685555 C64.5213573,39.4644346 85.4030448,26.2547486 88.3609802,31.7215577 C91.3179032,37.1865975 88.3609802,31.7215577 77.3896921,40.2437645 C66.4184041,48.7677406 63.3896079,101.919632 63.3896079,101.919632 C63.3896079,101.919632 65.355491,107.04941 80.6907966,109.425437" id="Fill-4" fill="#2C8CF4"/>
                        <path d="M102.705347,43.7051924 C105.366679,44.4456 108.364094,44.3686401 111.224849,43.122243 C115.857125,41.105362 118.546802,36.1657727 117.417077,31.7525186 C114.908602,21.9485307 99.1835616,21.3806195 95.1242457,30.5353132 C92.53175,36.3771913 96.788464,42.0598421 102.705347,43.7051924" id="Fill-6" fill="#1273EB"/>
                        <path d="M69.849184,51.4251583 C64.9324516,49.3596244 15.7418446,50.4078718 8.9300899,52.9369344 C18.2574056,59.2786099 16.9606516,90.0802752 14.2679384,101.572074 C11.5752251,113.063873 8.24678861,119.537353 4.72196624,118.450184 C14.5493573,123.117317 59.5763817,118.571373 62.2711196,116.501416 C74.5634568,107.058344 73.9449426,98.1937983 73.9449426,98.1937983 L69.849184,51.4251583 Z" id="Fill-8" fill="#2C8CF4"/>
                        <path d="M61.1013078,108.288553 C54.4029305,109.20588 47.7511189,110.193975 40.9889669,110.684926 C33.0100324,111.265222 25.017938,111.693367 17.0207821,112.018014 C15.0113702,112.099397 13.0009459,112.179895 10.9884971,112.258624 C9.04792142,116.858528 6.92310747,119.129289 4.72237116,118.449918 C14.5487499,123.117052 59.5757744,118.571108 62.2705122,116.501151 C66.5636689,113.203374 69.2786527,109.977249 70.9985474,107.173076 C67.6771969,107.419879 64.3669818,107.841832 61.1013078,108.288553" id="Fill-10" fill="#1273EB"/>
                        <path d="M130.921236,53.4362009 C137.563937,52.3534543 142.300481,56.0864534 141.746753,62.6828927 C141.0756,70.6761106 140.757738,78.0987635 141.631351,84.6368195 C142.256952,89.3198757 143.442353,95.633244 135.790391,96.5231485 C131.209741,97.0556759 123.47882,95.7986636 123.47882,95.7986636 L120.631225,69.8950115 L130.921236,53.4362009 Z" id="Fill-12" fill="#2C8CF4"/>
                        <path d="M51.79687,68.6946135 C49.2317063,76.4932201 52.0286863,85.6116453 56.0819283,92.6822286 C58.789826,97.4033225 64.1094531,99.899655 68.0645022,103.33543 C71.9527397,104.150143 76.3025851,104.264256 81.0168579,103.671576 C91.849461,102.306643 102.873389,104.004185 113.660438,102.56583 C117.019244,102.118224 120.204946,100.946133 123.09607,99.4095883 C125.623779,98.0667702 129.061543,96.2692692 130.440293,93.895011 C131.162062,92.6521523 131.640879,91.3040266 132.027577,89.9559009 C132.99331,86.5838173 133.382032,83.0852365 133.611824,79.622924 C133.997509,73.8323525 134.012694,67.9108606 133.347614,62.1317888 C133.333442,62.0061761 133.362798,61.6364145 133.271692,61.5373397 C131.635818,50.4648398 132.997359,48.4568048 87.5148001,50.2392676 C79.6036896,50.5497611 73.2565798,51.0017902 68.1272647,51.6316232 C63.1690281,54.5304474 58.6916331,58.1148341 55.1516263,62.3423229 C53.6888553,64.0894018 52.7241351,66.0974369 51.8495095,68.1435096 C51.87178,68.3133522 51.8606448,68.4964638 51.79687,68.6946135" id="Fill-14" fill="#5EB2FC"/>
                        <path d="M112.153126,88.1912184 C114.253645,88.4088293 129.549471,85.2561258 131.541674,84.6899838 C133.726213,84.0707659 118.941598,83.7116195 117.918165,82.3723398 C117.382659,81.2444787 116.031241,80.3253825 114.526966,80.4456877 C114.26478,80.466918 114.027903,80.4660334 113.803172,80.4527644 C112.98726,79.4611313 112.587402,77.5397867 112.574242,76.8568779 C112.555009,75.8723215 112.67446,74.8868805 112.630931,73.9032087 C112.540836,71.8544822 112.233098,70.6470074 112.930571,68.8618908 C114.915688,63.780766 121.772996,66.4310184 126.523712,66.4089035 C128.726473,66.3982883 130.587077,63.7922657 128.259803,62.5087156 C124.068889,60.1972638 117.932337,59.6797746 113.120883,60.7200606 C106.87804,62.0699555 105.374777,68.4956676 105.214834,73.3158364 C105.09842,76.8206094 106.421494,87.5967693 112.153126,88.1912184" id="Fill-16" fill="#1273EB"/>
                        <path d="M81.0170603,103.671223 C81.4746191,103.613724 81.9301533,103.563302 82.3866998,103.514649 C80.8480065,103.02989 79.3619527,102.517708 77.9568828,101.986065 C67.8632574,98.1654912 59.7152691,91.6026665 56.8423667,82.0950186 C52.3092953,67.0904854 63.2056733,56.4744376 77.2938275,50.7820563 C51.4974322,52.9581648 47.0908981,63.7130943 47.379403,78.5203624 C47.7590149,98.0398784 62.3877363,106.017174 81.0170603,103.671223" id="Fill-18" fill="#1273EB"/>
                        <g id="Group-22" transform="translate(0.000000, 52.719324)">
                            <mask id="mask-12" fill="white">
                                <use xlink:href="#path-11"/>
                            </mask>
                            <g id="Clip-21"/>
                            <path d="M6.68238296,65.9804932 C11.7347633,64.7756722 15.5642875,56.6134962 16.1787525,31.8014368 C16.7922052,6.98937731 11.9007802,-0.22804909 8.93069728,0.217787766 C5.95858973,0.662740024 0.648073315,11.4291693 0.0913092987,31.3042933 C-0.304499302,45.4587289 0.359568325,67.488731 6.68238296,65.9804932" id="Fill-20" fill="#1273EB" mask="url(#mask-12)"/>
                        </g>
                        <path d="M104.435365,30.5995349 C104.843321,26.4560829 114.21619,27.4901767 112.226012,32.4616115 C110.584064,36.5626029 104.098269,34.4448778 104.435365,30.5995349 M104.641874,41.1775451 C107.303206,41.9170681 110.300621,41.8409928 113.161375,40.5945957 C117.793652,38.5768301 120.483328,33.6381254 119.353603,29.2239867 C116.845128,19.4199988 101.120088,18.8520876 97.0597599,28.0067813 C94.4682765,33.8486595 98.7249905,39.5313102 104.641874,41.1775451" id="Fill-23" fill="#92CDFA"/>
                        <path d="M68.9248545,22.3750834 C69.7741727,20.9482285 69.9644848,19.1631119 69.1657815,17.6301054 C67.3699644,14.1784081 62.137395,13.4211932 59.5752682,16.6145881 C57.3411261,19.4001839 59.0438116,23.4932139 62.6222858,24.680343 C65.3888968,25.5985546 67.7667853,24.3176582 68.9248545,22.3750834" id="Fill-25" fill="#92CDFA"/>
                        <path d="M14.0887616,120.401251 C15.1820437,121.139889 17.226886,120.924932 18.2786639,120.430442 C22.3612626,118.512636 27.2496506,113.059096 29.0606521,109.772818 C33.5380471,101.652218 34.1849057,88.2311137 32.6694953,78.6066991 C30.8645676,67.1290538 28.0372187,58.6838069 17.7593549,51.4991106 C17.4526285,51.2850381 16.5415602,51.1788865 16.1538499,51.2708846 C15.1911543,51.4999952 15.3764049,51.776874 16.2601413,51.7759894 C25.6107398,58.666115 26.7252802,70.8770911 28.0260834,80.3245863 C29.141636,88.4407632 28.6010688,95.0133185 26.8477683,103.806212 C25.4781288,110.676876 19.9135255,119.061971 15.3187039,119.94126 C14.5361974,120.090757 13.5117516,120.010259 14.0887616,120.401251" id="Fill-27" fill="#92CDFA"/>
                        <path d="M114.15201,86.2919888 C119.63563,85.8426136 126.111301,85.472852 131.542281,84.6899838 C133.514238,84.4060281 134.449602,81.4107829 135.073177,79.0957927 C135.918446,75.9554736 136.235296,73.4396799 136.238333,70.2109011 C136.240357,67.3288843 135.527699,60.3847983 131.222395,60.1742643 C127.243051,59.9787683 123.367973,59.3683965 119.378506,59.9955757 C116.12498,60.5086419 112.194226,61.9293046 111.134349,64.9714335 C108.529706,71.1954575 109.028769,78.5933417 111.374264,84.7890586 C111.745777,85.773615 113.006089,86.3857561 114.15201,86.2919888" id="Fill-29" fill="#C7EBFF"/>
                        <path d="M8.77915624,56.6605568 C15.7488294,74.3047273 10.4332515,118.307233 5.44565823,114.675078 C0.457052643,111.042038 4.39489269,75.5697009 4.97190267,72.9548323" id="Stroke-31" stroke="#0161CD" stroke-width="0.658" stroke-linecap="round" stroke-linejoin="round"/>
                        <path d="M19.0701799,60.3557836 C23.6488047,67.6245166 27.7010344,103.547114 14.6626334,117.561783" id="Stroke-33" stroke="#1273EB" stroke-width="0.658" stroke-linecap="round" stroke-linejoin="round"/>
                        <path d="M57.8409989,102.428098 L46.7330506,101.967223 C46.7330506,101.967223 44.8046225,108.193901 42.1200077,111.184724 C47.7716686,112.209087 57.4229198,111.682752 57.4229198,111.682752 C57.4229198,111.682752 63.0027075,105.44192 62.2282994,102.439598 C60.6632863,102.64394 57.8409989,102.428098 57.8409989,102.428098 Z" id="Stroke-35" stroke="#1273EB" stroke-width="0.658" stroke-linecap="round" stroke-linejoin="round"/>
                        <path d="M74.3649451,51.0014363 C60.9034035,52.9033198 50.0576404,57.5695686 48.0563269,69.7398532 C45.8424307,83.193688 50.0060132,102.335481 69.1232649,103.538533 C72.6531488,103.958717 71.6702072,106.306437 70.5506054,107.880135 C69.4330282,109.453833 66.2847808,115.404516 62.2710183,116.501416" id="Stroke-37" stroke="#0161CD" stroke-width="0.658" stroke-linecap="round" stroke-linejoin="round"/>
                        <path d="M130.874772,87.6287917 C117.236078,92.0491226 96.4768786,94.1810012 90.4830609,82.4211695 C84.4902555,70.6622225 94.3753475,58.9112368 104.238169,57.1349661 C114.099978,55.3595801 133.379198,56.6112847 133.379198,56.6112847" id="Stroke-39" stroke="#2C8CF4" stroke-width="0.658" stroke-linecap="round" stroke-linejoin="round"/>
                        <path d="M68.2338597,125.638861 C70.8354661,126.727799 74.124423,126.250117 76.3626144,124.720649 C77.6047043,123.87232 77.131961,121.637829 75.3513285,121.646675 C74.0262301,121.653751 71.1907828,122.610001 70.1349558,121.659059 C69.7199135,121.285759 69.7705284,120.497583 69.5984377,120.014593 C69.2572932,119.053036 68.7248244,118.472741 67.6335669,118.102979 C66.2730381,117.642989 65.1281288,118.47451 64.8284885,119.587333 C64.219085,121.854555 65.8903894,124.656958 68.2338597,125.638861" id="Fill-41" fill="#2C8CF4"/>
                        <path d="M69.6129136,136.76364 C85.9210378,136.404494 92.4321399,128.77573 92.4321399,128.77573" id="Stroke-43" stroke="#0161CD" stroke-width="0.658" stroke-linecap="round" stroke-linejoin="round"/>
                        <path d="M107.676845,128.856759 C109.140628,129.440593 110.760305,129.199982 112.265593,128.883297 C113.139206,128.698416 114.060397,128.496728 114.936035,128.211888 C117.328096,128.076544 119.566287,127.166294 119.844669,125.0238 C120.392323,120.790119 113.182735,120.453972 110.088139,121.316455 C108.260941,121.825098 106.502579,122.931729 105.794982,124.54081 C105.071189,126.184391 105.802069,128.110159 107.676845,128.856759" id="Fill-45" fill="#1273EB"/>
                        <path d="M69.5110764,98.7657787 C61.4724163,99.1231558 56.4423065,97.9829104 56.4423065,97.9829104" id="Stroke-47" stroke="#5EB2FC" stroke-width="0.658" stroke-linecap="round" stroke-linejoin="round"/>
                        <path d="M126.081135,95.4627822 C112.149887,99.2585876 79.4303841,98.581871 71.391724,98.9392481" id="Stroke-49" stroke="#92CDFA" stroke-width="0.658" stroke-linecap="round" stroke-linejoin="round"/>
                        <path d="M131.539042,65.8896451 L117.221096,66.1081405" id="Stroke-51" stroke="#92CDFA" stroke-width="1.565" stroke-linecap="round" stroke-linejoin="round"/>
                        <path d="M130.5643,78.9417844 L116.289883,80.4049077" id="Stroke-53" stroke="#92CDFA" stroke-width="1.565" stroke-linecap="round" stroke-linejoin="round"/>
                        <path d="M30.1312587,54.9755765 C36.7972425,62.2655399 47.9517565,95.9005692 30.9755154,115.639465" id="Stroke-55" stroke="#1273EB" stroke-width="0.658" stroke-linecap="round" stroke-linejoin="round"/>
                        <path d="M9.68658036,59.3329241 C8.09727217,59.5593809 2.06903631,112.452086 5.44606315,114.675078 C11.0643182,116.686651 14.3583366,72.1578105 9.68658036,59.3329241" id="Fill-57" fill="#0353A7"/>
                        <path d="M118.444458,16.3820276 C108.276935,7.82266762 93.0560193,11.0426005 86.666393,16.6712908 C80.2777789,22.2990965 74.1341411,20.0849504 72.8394117,18.6253654" id="Stroke-59" stroke="#1273EB" stroke-width="0.658" stroke-linecap="round" stroke-linejoin="round"/>
                        <path d="M111.778475,35.5667236 L114.607848,38.6707743" id="Stroke-61" stroke="#1273EB" stroke-width="0.658" stroke-linecap="round" stroke-linejoin="round"/>
                        <path d="M108.288779,36.5899369 L108.542866,40.5520466" id="Stroke-63" stroke="#1273EB" stroke-width="0.658" stroke-linecap="round" stroke-linejoin="round"/>
                        <path d="M104.766487,35.6604909 L102.349119,39.0210747" id="Stroke-65" stroke="#1273EB" stroke-width="0.658" stroke-linecap="round" stroke-linejoin="round"/>
                        <path d="M102.507645,33.1216092 L98.3106568,34.6404622" id="Stroke-67" stroke="#1273EB" stroke-width="0.658" stroke-linecap="round" stroke-linejoin="round"/>
                        <path d="M102.346487,29.9088416 L97.918695,29.0260139" id="Stroke-69" stroke="#1273EB" stroke-width="0.658" stroke-linecap="round" stroke-linejoin="round"/>
                        <path d="M104.342436,27.2071057 L101.314652,24.2481289" id="Stroke-71" stroke="#1273EB" stroke-width="0.658" stroke-linecap="round" stroke-linejoin="round"/>
                        <path d="M107.758942,26.0119267 L107.247732,22.0683936" id="Stroke-73" stroke="#1273EB" stroke-width="0.658" stroke-linecap="round" stroke-linejoin="round"/>
                        <path d="M111.336607,26.7648072 L113.531269,23.2901104" id="Stroke-75" stroke="#1273EB" stroke-width="0.658" stroke-linecap="round" stroke-linejoin="round"/>
                        <path d="M113.756607,29.1875413 L117.847304,27.4625773" id="Stroke-77" stroke="#1273EB" stroke-width="0.658" stroke-linecap="round" stroke-linejoin="round"/>
                        <path d="M114.126298,32.386863 L118.604705,33.0485415" id="Stroke-79" stroke="#1273EB" stroke-width="0.658" stroke-linecap="round" stroke-linejoin="round"/>
                    </g>
                    <g id="Group-31" opacity="0.5" transform="translate(28.000000, 201.000000)">
                        <path d="M106.757932,36.1458265 C98.8097923,14.9846005 75.5980191,-1.62812905 47.761591,0.445796794 C16.3947823,2.78233013 -6.08269088,30.4010071 1.71117414,59.20254 C7.30572693,79.8778299 29.1828441,96.3929234 51.6076965,99.5060567 C68.2239249,101.813411 84.7552424,95.4356405 95.9096661,83.9796692 C110.262002,69.2388597 112.524699,51.4960201 106.757932,36.1458265" id="Fill-1" fill="#B3B3FC"/>
                        <path d="M80.8528086,10.4276872 C46.8310391,-8.588911 18.2902092,11.3569137 9.90675149,24.6343036 C1.5232938,37.9116936 -1.90662869,58.920293 11.1816111,74.5286051 C7.78995832,50.1925218 10.4425274,40.990037 19.9944071,30.5317497 C34.7246565,14.4015894 54.1477287,8.89132111 80.8528086,10.4276872" id="Fill-3" fill="#8080F1"/>
                        <path d="M35.0980253,93.734752 C71.5236108,108.312835 96.9657904,84.9654573 103.383142,70.7543518 C109.798102,56.5443686 110.204717,35.2944845 95.0104476,21.4694344 C111.700824,39.4647812 105.260749,62.9636629 97.2851033,74.5284928 C84.9861762,92.3599905 59.8166683,101.130407 35.0980253,93.734752" id="Fill-5" fill="#D7D7FF"/>
                        <path d="M92.8775094,15.8499708 C81.6321951,5.49829763 65.6522006,-0.887329022 47.7611126,0.44590902 C16.3954999,2.78244236 -6.08197332,30.4011193 1.7118917,59.2026522 C5.03657249,71.4924584 14.1160605,82.3121116 25.6424179,89.7201119 M25.6424179,89.7201119 C33.5068426,94.7758672 42.513379,98.2425106 51.6072181,99.5061689 C68.2246425,101.813524 84.754764,95.4357527 95.9091877,83.9797814 C110.261524,69.2389719 112.525416,51.4961323 106.757454,36.1459388 C103.917124,28.5853119 99.1298227,21.6037683 92.8775094,15.8499708" id="Stroke-7" stroke="#8080F1" stroke-width="0.762" stroke-linecap="round" stroke-linejoin="round"/>
                        <path d="M90.6479401,79.3066025 C81.3484013,77.8802174 77.3193188,74.0331298 75.1977419,70.2690891 C73.0773609,66.5050484 86.7229033,67.8438977 86.7229033,67.8438977 L91.7266675,74.3181824 L90.6479401,79.3066025 Z" id="Fill-9" fill="#8080F1"/>
                        <path d="M78.0896162,70.6803953 C82.2741695,70.7219187 90.2976527,78.1186964 90.6480597,79.3071636 C92.3905273,79.3071636 96.5332231,74.9337389 96.8286174,73.460219 C97.4409327,70.400954 96.9003731,68.6715602 93.34727,66.0903754 C89.6303247,63.3902317 83.4629222,61.4902553 83.4629222,61.4902553 L75.7766908,65.0522902 L78.0896162,70.6803953 Z" id="Fill-11" fill="#D7D7FF"/>
                        <path d="M87.2377505,42.1516824 C83.0316705,30.8584379 70.7530742,21.9915071 56.0252166,23.0980498 C39.4305149,24.3459965 27.5393994,39.0856838 31.6617644,54.4572001 C34.6216871,65.4923261 46.1970775,74.3053887 58.0606867,75.9685695 C66.85076,77.1985601 75.596584,73.7958853 81.4972944,67.6818442 C89.0914394,59.8137197 90.2885637,50.3441383 87.2377505,42.1516824" id="Fill-13" fill="#D7D7FF"/>
                        <path d="M85.2791786,42.6843042 C81.3732767,32.1968383 69.9712958,23.9639812 56.2958552,24.9919661 C40.8875144,26.1501324 29.8443121,39.8382675 33.6736747,54.1122192 C36.4207221,64.3572782 47.169726,72.5418784 58.185422,74.084978 C66.3488289,75.228555 74.4691823,72.0694093 79.948926,66.3908029 C86.9989236,59.0849277 88.1123329,50.2920657 85.2791786,42.6843042" id="Fill-15" fill="#B3B3FC"/>
                        <path d="M81.4811494,41.894125 C77.9232626,32.3403746 67.535429,24.8403495 55.0774434,25.7763096 C41.0396365,26.8312285 30.9794873,39.3005955 34.4668143,52.3041554 C36.9710883,61.6390662 46.7633496,69.0942011 56.7983843,70.5003857 C64.2358627,71.5429599 71.6338754,68.6643777 76.6244844,63.4907857 C83.0490114,56.8346958 84.0619628,48.8251672 81.4811494,41.894125" id="Fill-17" fill="#8080F1"/>
                        <path d="M78.0906925,30.9390158 C72.424384,26.1918803 64.7166259,23.3447213 56.152583,23.9888952 C40.1151839,25.1941963 28.6235084,39.4389694 32.6083417,54.2953711 C33.6141174,58.0437003 35.6483915,61.5271774 38.3619529,64.5381856 M44.9503222,70.1034444 C45.7001693,70.5860137 46.4703471,71.0394044 47.256072,71.4636165" id="Stroke-19" stroke="#F8FAFB" stroke-width="0.762" stroke-linecap="round" stroke-linejoin="round"/>
                        <path d="M85.3772447,71.4091872 C85.1775247,71.2116704 85.0136825,71.0624106 84.9120286,70.9928309 C84.2590517,70.5416846 87.0551322,64.7317744 87.9508825,64.9360247 C88.8454369,65.140275 94.9219489,68.4565363 95.3716179,70.1040055 C95.787801,71.6269045 94.3479033,74.9790779 90.2410853,76.3661842 C88.9088211,74.5133424 87.1950558,72.8580174 85.3772447,71.4091872" id="Fill-21" fill="#F8FAFB"/>
                        <path d="M66.0065542,30.9400258 C68.2847977,31.0298061 71.9598855,33.434797 73.4739308,35.2079587 C75.1147444,37.1258912 76.0535482,38.3659821 77.2721992,40.5521334 C79.6365495,44.7987434 79.9427072,49.6008694 78.8651757,54.3019924 C76.9349474,62.7301218 69.2881816,68.2864025 59.8164291,68.1090863 C54.2386193,68.0047167 48.7098425,65.498723 45.3887495,61.5371655" id="Stroke-23" stroke="#B3B3FC" stroke-width="0.762" stroke-linecap="round" stroke-linejoin="round"/>
                        <path d="M49.1712317,59.9882302 C54.3101358,65.3245491 63.2233897,66.2055187 69.5534385,62.2540615 C75.9253447,58.2756702 77.07224,50.5994512 75.2412737,44.0320193 C74.1051417,39.9515029 71.2325219,36.3636561 67.1268998,34.5388707" id="Stroke-25" stroke="#B3B3FC" stroke-width="0.762" stroke-linecap="round" stroke-linejoin="round"/>
                        <path d="M56.5453259,55.5540914 C62.5201839,60.6771821 72.1880686,54.4688716 69.1528025,47.3975476 C68.4472047,45.7545674 67.0384012,44.3483828 65.2767987,43.678397" id="Stroke-27" stroke="#B3B3FC" stroke-width="0.762" stroke-linecap="round" stroke-linejoin="round"/>
                        <path d="M59.2817295,52.8711182 C61.376996,55.4377137 66.1846279,51.0238877 62.4545274,48.9589399" id="Stroke-29" stroke="#B3B3FC" stroke-width="0.762" stroke-linecap="round" stroke-linejoin="round"/>
                    </g>
                </g>
            </g>
        </g>
    </g>
</svg>