<svg xmlns="http://www.w3.org/2000/svg" xmlns:xlink="http://www.w3.org/1999/xlink" width="1920" height="1080" viewBox="0 0 1920 1080">
  <defs>
    <style>
      .cls-1, .cls-2, .cls-3, .cls-4 {
        fill-rule: evenodd;
      }

      .cls-1 {
        opacity: 0.1;
        fill: url(#linear-gradient);
      }

      .cls-2 {
        fill: url(#linear-gradient-2);
      }

      .cls-3 {
        fill: url(#linear-gradient-3);
      }

      .cls-4 {
        fill: url(#linear-gradient-4);
      }

      .cls-10, .cls-11, .cls-12, .cls-5, .cls-6, .cls-7, .cls-8, .cls-9 {
        opacity: 0.2;
      }

      .cls-5 {
        fill: url(#linear-gradient-5);
      }

      .cls-6 {
        fill: url(#linear-gradient-6);
      }

      .cls-7 {
        fill: url(#linear-gradient-7);
      }

      .cls-8 {
        fill: url(#linear-gradient-8);
      }

      .cls-9 {
        fill: url(#linear-gradient-9);
      }

      .cls-10 {
        fill: url(#linear-gradient-10);
      }

      .cls-11 {
        fill: url(#linear-gradient-11);
      }

      .cls-12 {
        fill: url(#linear-gradient-12);
      }
    </style>
    <linearGradient id="linear-gradient" x1="111" y1="282.5" x2="1920" y2="767.22" gradientUnits="userSpaceOnUse">
      <stop offset="0" stop-color="#26c6da"/>
      <stop offset="1" stop-color="#26a69a"/>
    </linearGradient>
    <linearGradient id="linear-gradient-2" x1="415" y1="225.65" y2="628.913" xlink:href="#linear-gradient"/>
    <linearGradient id="linear-gradient-3" x1="705" y1="182.221" y2="507.779" xlink:href="#linear-gradient"/>
    <linearGradient id="linear-gradient-4" x1="1011" y1="136.217" y2="379.783" xlink:href="#linear-gradient"/>
    <linearGradient id="linear-gradient-5" x1="1091" y1="98.009" x2="1285" y2="149.991" xlink:href="#linear-gradient"/>
    <linearGradient id="linear-gradient-6" x1="447" y1="55.55" x2="525" y2="76.45" xlink:href="#linear-gradient"/>
    <linearGradient id="linear-gradient-7" x1="1503" y1="442.289" x2="1624" y2="474.711" xlink:href="#linear-gradient"/>
    <linearGradient id="linear-gradient-8" x1="1584" y1="2.289" x2="1705" y2="34.711" xlink:href="#linear-gradient"/>
    <linearGradient id="linear-gradient-9" x1="1023" y1="504.289" x2="1144" y2="536.711" xlink:href="#linear-gradient"/>
    <linearGradient id="linear-gradient-10" x1="1656" y1="829.863" x2="1713" y2="845.137" xlink:href="#linear-gradient"/>
    <linearGradient id="linear-gradient-11" x1="589" y1="483.909" x2="627" y2="494.091" xlink:href="#linear-gradient"/>
    <linearGradient id="linear-gradient-12" x1="350" y1="847.909" x2="388" y2="858.091" xlink:href="#linear-gradient"/>
  </defs>
  <path id="Şekil_3" data-name="Şekil 3" class="cls-1" d="M111,0S404.879,435.205,686,338c656.05-226.847,429.7,252.205,543,590,84.48,251.86,691,58.865,691-95V0H111Z"/>
  <path id="Şekil_1" data-name="Şekil 1" class="cls-2" d="M415,0S558.03,173.458,957,257c233.18,48.827,69.6,352.143,242,478,49.89,36.418,578.5,284.5,721-64V0H415Z"/>
  <path id="Şekil_2" data-name="Şekil 2" class="cls-3" d="M705,0s115.469,140.056,437.56,207.51c188.25,39.424,56.19,284.331,195.37,385.952,40.27,29.4,467.03,229.714,582.07-51.676V0H705Z"/>
  <path id="Şekil_4" data-name="Şekil 4" class="cls-4" d="M1011,0s86.39,104.737,327.36,155.181c140.84,29.482,42.04,212.63,146.17,288.625,30.13,21.99,349.4,171.786,435.47-38.644V0H1011Z"/>
  <circle id="Elips_5" data-name="Elips 5" class="cls-5" cx="1188" cy="124" r="97"/>
  <circle id="Elips_6" data-name="Elips 6" class="cls-6" cx="486" cy="66" r="39"/>
  <circle id="Elips_7" data-name="Elips 7" class="cls-7" cx="1563.5" cy="458.5" r="60.5"/>
  <circle id="Elips_8" data-name="Elips 8" class="cls-8" cx="1644.5" cy="18.5" r="60.5"/>
  <circle id="Elips_9" data-name="Elips 9" class="cls-9" cx="1083.5" cy="520.5" r="60.5"/>
  <circle id="Elips_10" data-name="Elips 10" class="cls-10" cx="1684.5" cy="837.5" r="28.5"/>
  <circle id="Elips_11" data-name="Elips 11" class="cls-11" cx="608" cy="489" r="19"/>
  <circle id="Elips_12" data-name="Elips 12" class="cls-12" cx="369" cy="853" r="19"/>
</svg>
