<svg xmlns="http://www.w3.org/2000/svg" xmlns:xlink="http://www.w3.org/1999/xlink" width="824" height="222" viewBox="0 0 824 222">
  <defs>
    <style>
      .cls-1, .cls-7, .cls-8 {
        fill: #26a69a;
      }

      .cls-1, .cls-2, .cls-3, .cls-4, .cls-5, .cls-6 {
        fill-rule: evenodd;
      }

      .cls-1, .cls-8 {
        opacity: 0.2;
      }

      .cls-2 {
        fill: url(#linear-gradient);
      }

      .cls-3 {
        fill: url(#linear-gradient-2);
      }

      .cls-4 {
        fill: url(#linear-gradient-3);
      }

      .cls-5 {
        fill: url(#linear-gradient-4);
      }

      .cls-6 {
        fill: url(#linear-gradient-5);
      }

      .cls-7 {
        opacity: 0.1;
      }
    </style>
    <linearGradient id="linear-gradient" x1="599.515" y1="206.938" x2="599.515" y2="-78.469" gradientUnits="userSpaceOnUse">
      <stop offset="0" stop-color="#26a69a"/>
      <stop offset="1" stop-color="#26c6da"/>
    </linearGradient>
    <linearGradient id="linear-gradient-2" x1="588.985" y1="183" x2="588.985" y2="-77.969" xlink:href="#linear-gradient"/>
    <linearGradient id="linear-gradient-3" x1="578.515" y1="158" x2="578.515" y2="-78.031" xlink:href="#linear-gradient"/>
    <linearGradient id="linear-gradient-4" x1="568.985" y1="135" x2="568.985" y2="-78" xlink:href="#linear-gradient"/>
    <linearGradient id="linear-gradient-5" x1="560.5" y1="114" x2="560.5" y2="-78" xlink:href="#linear-gradient"/>
  </defs>
  <path id="Şekil_2" data-name="Şekil 2" class="cls-1" d="M666.278,24c-14.022,82-50.08,94-119.191,94S443.922,98,434.908,18C416.288-147.242,692.2-127.6,666.278,24Z"/>
  <path id="Şekil_3" data-name="Şekil 3" class="cls-1" d="M767.278,103c-14.022,82-50.08,94-119.191,94S544.922,177,535.908,97C517.288-68.242,793.2-48.6,767.278,103Z"/>
  <path id="Şekil_1" data-name="Şekil 1" class="cls-2" d="M483.453,63.676c9.932,69.9,20.624,142.53,89.1,143.273s154.1-37.06,147.071-120.25S689.084-99.315,579.942-74.78,473.521-6.227,483.453,63.676Z"/>
  <path id="Şekil_1_2" data-name="Şekil 1 2" class="cls-3" d="M483.064,51.989c9.066,63.925,18.825,130.341,81.322,131.02S705.04,149.119,698.625,73.042,670.753-97.063,571.134-74.626,474-11.936,483.064,51.989Z"/>
  <path id="Şekil_1_3" data-name="Şekil 1 3" class="cls-4" d="M482.7,39.524c8.2,57.809,17.025,117.87,73.549,118.484S683.462,127.36,677.661,58.563s-25.208-153.83-115.3-133.54S474.505-18.285,482.7,39.524Z"/>
  <path id="Şekil_1_4" data-name="Şekil 1 4" class="cls-5" d="M482.323,28.084c7.417,52.168,15.4,106.369,66.537,106.924S663.942,107.35,658.693,45.266s-22.8-138.82-104.312-120.51S474.905-24.083,482.323,28.084Z"/>
  <path id="Şekil_1_5" data-name="Şekil 1 5" class="cls-6" d="M482.01,17.625c6.718,47.025,13.949,95.882,60.263,96.382S646.5,89.076,641.75,33.113,621.1-92.021,547.273-75.516,475.291-29.4,482.01,17.625Z"/>
  <circle id="Elips_1" data-name="Elips 1" class="cls-7" cx="87" cy="36" r="66"/>
  <circle id="Elips_2" data-name="Elips 2" class="cls-8" cx="216" cy="113" r="15"/>
  <circle id="Elips_3" data-name="Elips 3" class="cls-8" cx="762.5" cy="88.5" r="32.5"/>
  <circle id="Elips_4" data-name="Elips 4" class="cls-8" cx="502.5" cy="160.5" r="23.5"/>
</svg>
