<?xml version="1.0" ?><!DOCTYPE svg  PUBLIC '-//W3C//DTD SVG 1.1//EN'  'http://www.w3.org/Graphics/SVG/1.1/DTD/svg11.dtd'><svg enable-background="new 0 0 75 75" height="75px" id="Layer_1" version="1.1" viewBox="0 0 75 75" width="75px" xml:space="preserve" xmlns="http://www.w3.org/2000/svg" xmlns:xlink="http://www.w3.org/1999/xlink"><g><g><g><path d="M21.997,54.07v6.32v3.312v0.676c0,1.143,0.926,2.07,2.068,2.07c1.145,0,2.07-0.928,2.07-2.07v-0.676     v-1.393c0-1.143,0.926-2.068,2.068-2.068s2.07,0.926,2.07,2.068v1.393v2.596c0,1.143,0.926,2.068,2.068,2.068     s2.07-0.926,2.07-2.068v-2.596v-1.393v-8.24H21.997z" fill="#D9F1FF"/><path d="M21.997,58.582v1.809v1.502v0.678c0,1.143,0.926,2.068,2.068,2.068c1.145,0,2.07-0.926,2.07-2.068v-0.26     v-0.418V60.5c0-1.141,0.926-2.068,2.068-2.068s2.07,0.928,2.07,2.068v1.393v0.418v1.393v0.787c0,1.141,0.926,2.068,2.068,2.068     s2.07-0.928,2.07-2.068v-0.787v-1.393v-0.418V60.5v-6.43H21.997V58.582z" fill="#AEDCFF"/><rect fill="#AEDCFF" height="4.207" width="12.416" x="21.997" y="54.07"/></g><g><path d="M53.003,54.07v6.32v3.312v0.676c0,1.143-0.928,2.07-2.07,2.07s-2.068-0.928-2.068-2.07v-0.676v-1.393     c0-1.143-0.926-2.068-2.07-2.068c-1.141,0-2.066,0.926-2.066,2.068v1.393v2.596c0,1.143-0.926,2.068-2.07,2.068     c-1.143,0-2.068-0.926-2.068-2.068v-2.596v-1.393v-8.24H53.003z" fill="#D9F1FF"/><path d="M53.003,58.582v1.809v1.502v0.678c0,1.143-0.928,2.068-2.07,2.068s-2.068-0.926-2.068-2.068v-0.26v-0.418     V60.5c0-1.141-0.926-2.068-2.07-2.068c-1.141,0-2.066,0.928-2.066,2.068v1.393v0.418v1.393v0.787c0,1.141-0.926,2.068-2.07,2.068     c-1.143,0-2.068-0.928-2.068-2.068v-0.787v-1.393v-0.418V60.5v-6.43h12.414V58.582z" fill="#AEDCFF"/><rect fill="#AEDCFF" height="4.207" width="12.414" x="40.589" y="54.07"/></g></g><g><g><polygon fill="#C6621E" points="42.349,68.367 32.653,68.367 34.269,57.875 40.731,57.875    "/><polygon fill="#A0490E" points="39.491,68.367 35.509,68.367 36.173,57.875 38.829,57.875    "/><g><g><path d="M49.526,24.092c-1.35-0.465-2.635-1.471-3.686-3.047l-8.34-15.162l-8.338,15.162       c-1.055,1.576-2.338,2.582-3.688,3.047H49.526z" fill="#0CAFAF"/></g><path d="M37.501,5.883l-8.338,15.162c-1.055,1.576-2.338,2.582-3.688,3.047h12.025V5.883z" fill="#1BC1A9"/><path d="M50.954,34.902l-5.945-10.811H29.995l-5.947,10.811c-1.699,2.545-3.771,4.164-5.947,4.912h38.799      C54.724,39.066,52.651,37.447,50.954,34.902z" fill="#1BC1A9"/><g><path d="M55.946,51.139l-6.229-11.324H25.282l-6.229,11.324c-2.33,3.488-5.172,5.711-8.154,6.736h53.201       C61.118,56.85,58.276,54.627,55.946,51.139z" fill="#1BC1A9"/></g></g><g><g><path d="M44.835,24.092c-0.822-0.465-1.605-1.471-2.248-3.047L37.501,5.883l-5.086,15.162       c-0.643,1.576-1.426,2.582-2.25,3.047H44.835z" fill="#109BAD"/></g><path d="M32.415,21.045c-0.643,1.576-1.426,2.582-2.25,3.047h7.336V5.883L32.415,21.045z" fill="#0CAFAF"/><path d="M45.706,34.902l-3.625-10.811h-9.158l-3.627,10.811c-1.035,2.545-2.299,4.164-3.627,4.912h23.664      C48.005,39.066,46.741,37.447,45.706,34.902z" fill="#0CAFAF"/><path d="M50.954,34.902l-5.945-10.811H30.544l-0.379,0.377l15.346,15.346h11.389      C54.724,39.066,52.651,37.447,50.954,34.902z" fill="#0CAFAF"/><path d="M45.706,34.902l-3.625-10.811h-9.158l-0.787,2.348l13.375,13.375h3.822      C48.005,39.066,46.741,37.447,45.706,34.902z" fill="#109BAD"/><g><path d="M48.749,51.139l-3.795-11.324H30.048l-3.799,11.324c-1.422,3.488-3.152,5.711-4.975,6.736h32.449       C51.905,56.85,50.171,54.627,48.749,51.139z" fill="#0CAFAF"/></g><path d="M55.946,51.139l-6.229-11.324H26.507l-0.838,0.838l17.223,17.223h21.209      C61.118,56.85,58.276,54.627,55.946,51.139z" fill="#0CAFAF"/><path d="M48.749,51.139l-3.795-11.324H30.048l-1.311,3.908l14.154,14.152h10.832      C51.905,56.85,50.171,54.627,48.749,51.139z" fill="#109BAD"/></g><g><path d="M47.065,69.117H27.933c-0.414,0-0.75-0.336-0.75-0.75s0.336-0.75,0.75-0.75h19.133      c0.414,0,0.75,0.336,0.75,0.75S47.479,69.117,47.065,69.117z" fill="#A0490E"/></g></g></g><g><path d="M38.997,39.814h-3.926h-7.654v5.895v3.088v0.633c0,1.064,0.865,1.93,1.93,1.93    c1.066,0,1.93-0.865,1.93-1.93v-0.633V47.5c0-1.066,0.865-1.93,1.932-1.93c0.9,0,1.652,0.621,1.863,1.455V47.5v1.297v2.422    c0,1.066,0.865,1.93,1.93,1.93c0.012,0,0.021-0.002,0.033-0.004c0.012,0.002,0.021,0.004,0.033,0.004    c1.064,0,1.93-0.863,1.93-1.93v-2.422V47.5v-0.475c0.211-0.834,0.963-1.455,1.863-1.455c1.066,0,1.932,0.863,1.932,1.93v1.297    v0.633c0,1.064,0.863,1.93,1.93,1.93c1.064,0,1.928-0.865,1.928-1.93v-0.633v-3.088v-5.895H38.997z" fill="#D9F1FF"/><path d="M27.417,39.814v5.895v3.088v0.633c0,1.064,0.865,1.93,1.93,1.93c1.066,0,1.93-0.865,1.93-1.93v-0.633V47.5    c0-1.066,0.865-1.93,1.932-1.93c1.064,0,1.93,0.863,1.93,1.93v1.297v2.422c0,1.066,0.863,1.93,1.93,1.93    c1.064,0,1.93-0.863,1.93-1.93v-2.422V47.5v-7.686H27.417z" fill="#FFFFFF"/><path d="M27.417,44.021v1.688v1.4v0.633c0,1.064,0.865,1.93,1.93,1.93c1.066,0,1.93-0.865,1.93-1.93V47.5v-0.391    v-1.297c0-1.066,0.865-1.93,1.932-1.93c1.064,0,1.93,0.863,1.93,1.93v1.297V47.5v1.297v0.734c0,1.066,0.863,1.93,1.93,1.93    c1.064,0,1.93-0.863,1.93-1.93v-0.734V47.5v-0.391v-1.297v-5.998h-11.58V44.021z" fill="#D9F1FF"/><rect fill="#AEDCFF" height="3.924" width="19.232" x="27.417" y="39.814"/></g><g><path d="M46.149,24.092v4.402v2.307v0.471c0,0.795-0.646,1.441-1.441,1.441c-0.797,0-1.441-0.646-1.441-1.441    v-0.471V29.83c0-0.795-0.646-1.441-1.441-1.441c-0.797,0-1.441,0.646-1.441,1.441v0.971v1.807c0,0.797-0.645,1.441-1.441,1.441    s-1.441-0.645-1.441-1.441v-1.807V29.83v-5.738H46.149z" fill="#FFFFFF"/><path d="M46.149,27.232v1.262v1.045v0.473c0,0.795-0.646,1.441-1.441,1.441c-0.797,0-1.441-0.646-1.441-1.441    V29.83v-0.291V28.57c0-0.797-0.646-1.441-1.441-1.441c-0.797,0-1.441,0.645-1.441,1.441v0.969v0.291v0.971v0.547    c0,0.797-0.645,1.441-1.441,1.441s-1.441-0.645-1.441-1.441v-0.547V29.83v-0.291V28.57v-4.479h8.648V27.232z" fill="#D9F1FF"/><rect fill="#AEDCFF" height="2.93" width="8.648" x="37.501" y="24.092"/></g></g></svg>