<svg xmlns="http://www.w3.org/2000/svg" width="74" height="186" viewBox="0 0 74 186">
  <defs>
    <style>
      .cls-1 {
        fill: #fff;
        fill-rule: evenodd;
      }
    </style>
  </defs>
  <path id="KİŞİLER" class="cls-1" d="M52.532,163.427v-3.094l-16.781-3.539V156.7l1.172-.633,15.609-10.593v-3.821L35.469,153.56,18.922,135.091v4.148l15.3,16.735,0.516,0.492v0.094l-15.82-3.352v3.117Zm0-26.906v-3.094L18.922,126.3v3.117Zm-37.418-10.9a2.015,2.015,0,0,0-1.465-.586,1.8,1.8,0,0,0-1.43.621,2.134,2.134,0,0,0-.539,1.442,2.059,2.059,0,0,0,.539,1.406,1.816,1.816,0,0,0,1.43.609,2.022,2.022,0,0,0,1.453-.586,1.933,1.933,0,0,0,.609-1.453A1.954,1.954,0,0,0,15.114,125.622Zm35.965-.094a17.525,17.525,0,0,0,1.5-4.054,18.588,18.588,0,0,0,.539-4.383,13.438,13.438,0,0,0-1.16-5.8,8.6,8.6,0,0,0-3.27-3.75,9.011,9.011,0,0,0-4.828-1.3,8.111,8.111,0,0,0-4.524,1.313,19.2,19.2,0,0,0-4.547,4.8,17.717,17.717,0,0,1-3.75,4.055,6.46,6.46,0,0,1-3.75,1.078,5.55,5.55,0,0,1-4.453-2.027,8.027,8.027,0,0,1-1.711-5.356,12.371,12.371,0,0,1,1.781-6.8l-3.164-.61a19.384,19.384,0,0,0-1.383,7.149,11.654,11.654,0,0,0,2.59,7.839,8.364,8.364,0,0,0,6.668,3.036,8.855,8.855,0,0,0,4.746-1.325,16.644,16.644,0,0,0,4.441-4.511,19.793,19.793,0,0,1,3.879-4.3,5.975,5.975,0,0,1,3.574-1.137,5.47,5.47,0,0,1,4.465,1.946,8.428,8.428,0,0,1,1.605,5.507,14.126,14.126,0,0,1-.715,4.383,14.307,14.307,0,0,1-1.746,3.7Zm11.461-5.086a14.837,14.837,0,0,0,.188-2.179,8.467,8.467,0,0,0-1.137-4.84,3.633,3.633,0,0,0-3.152-1.629,2.822,2.822,0,0,0-2.461,1.2,5.47,5.47,0,0,0-.844,3.211l-2.6-.562v1.945l4.336,0.914-0.094-1.383q0-2.93,1.922-2.929,2.156,0,2.156,3.937a9.483,9.483,0,0,1-.211,1.945Zm-10.008-19.57V97.778L18.922,90.653v3.117Zm-37.418-10.9a2.013,2.013,0,0,0-1.465-.586,1.8,1.8,0,0,0-1.43.621,2.133,2.133,0,0,0-.539,1.441,2.059,2.059,0,0,0,.539,1.406,1.815,1.815,0,0,0,1.43.609A2.023,2.023,0,0,0,15.1,92.88a1.933,1.933,0,0,0,.609-1.453A1.954,1.954,0,0,0,15.114,89.974Zm37.418-.891V72.536l-2.812-.586V85.38l-30.8-6.516v3.117Zm0-21.211V50.786l-2.789-.562V64.216l-12.7-2.7V49.263l-2.789-.586V60.911L21.711,58.239v-13.2l-2.789-.586V60.771Zm0-23.531V41.247L37.86,38.13V34.778a5.019,5.019,0,0,1,1.125-3.492,6.775,6.775,0,0,1,3.469-1.828l10.078-2.484v-3.3L41.8,26.411q-3.7.914-4.57,3.211H37.133a11.38,11.38,0,0,0-3.059-7.383,9.212,9.212,0,0,0-6.9-2.812,7.9,7.9,0,0,0-6.082,2.332,9.331,9.331,0,0,0-2.168,6.6v8.883Zm-17.437-6.8L21.711,34.708V28.872a6.438,6.438,0,0,1,1.547-4.664,5.515,5.515,0,0,1,4.148-1.594,6.894,6.894,0,0,1,5.625,2.508,10.576,10.576,0,0,1,2.063,6.914v5.508Z"/>
</svg>
