<svg xmlns="http://www.w3.org/2000/svg" width="570" height="590" viewBox="0 0 570 590">
  <defs>
    <style>
      .cls-1, .cls-2 {
        fill-rule: evenodd;
      }

      .cls-2 {
        fill: none;
        stroke: #000;
        stroke-width: 4px;
      }
    </style>
  </defs>
  <path id="İl_Kodu_:_06" data-name="İl Kodu : 06" class="cls-1" d="M117.561,544.312V495.883h-6.409v48.429h6.409Zm0.495-51.4v-7.4H110.69v7.4h7.366Zm19.917,51.4V495.883h-5.947v48.429h5.947Zm38.977,0V527.531l7.928-7.731,17.245,24.512h8.457l-21.209-28.806,20.317-19.623H201L176.95,519.9V495.883h-6.409v48.429h6.409Zm40.551-3.931a15.764,15.764,0,0,0,11.909,4.724,17.221,17.221,0,0,0,8.473-2.147,14.373,14.373,0,0,0,5.913-6.029q2.033-3.882,2.032-10.654,0-8.356-4.592-13.1a15.741,15.741,0,0,0-11.826-4.741,16.328,16.328,0,0,0-11.034,3.9q-5.418,4.692-5.418,14.437Q212.958,535.657,217.5,540.381ZM222.01,516.7a9.8,9.8,0,0,1,14.75.017q2.957,3.352,2.957,9.861,0,6.9-2.94,10.273a9.79,9.79,0,0,1-14.767.017q-2.941-3.352-2.94-10.092T222.01,516.7Zm63.126,27.617V495.883h-5.913v17.376a11.825,11.825,0,0,0-4.031-3.485,11.694,11.694,0,0,0-5.649-1.338,14.038,14.038,0,0,0-7.829,2.28,13.807,13.807,0,0,0-5.253,6.557,24.954,24.954,0,0,0-1.75,9.531,22.32,22.32,0,0,0,1.932,9.53,15.2,15.2,0,0,0,5.451,6.459,13.76,13.76,0,0,0,7.714,2.312,10.912,10.912,0,0,0,9.811-5.219v4.426h5.517ZM263.481,516.6a8.24,8.24,0,0,1,6.624-3.237,8.535,8.535,0,0,1,6.838,3.369q2.775,3.369,2.775,10.571,0,6.542-2.725,9.729a8.408,8.408,0,0,1-6.624,3.188,8.564,8.564,0,0,1-6.706-3.337q-2.841-3.336-2.841-10.075Q260.822,519.834,263.481,516.6ZM322.8,544.312V509.229H316.85v18.8a18.744,18.744,0,0,1-.975,6.855,7.626,7.626,0,0,1-3.32,3.733,9.786,9.786,0,0,1-5.021,1.371,7.369,7.369,0,0,1-4.493-1.338,6.2,6.2,0,0,1-2.379-3.684,34.7,34.7,0,0,1-.363-6.276V509.229h-5.946v21.737a30.133,30.133,0,0,0,.363,5.55,11.194,11.194,0,0,0,1.833,4.41,9.541,9.541,0,0,0,4,2.99,14.179,14.179,0,0,0,5.8,1.189,12.842,12.842,0,0,0,11.133-5.946v5.153H322.8ZM363.392,516v-6.772H356.62V516h6.772Zm0,28.311V537.54H356.62v6.772h6.772Zm37.721-4.2a13.286,13.286,0,0,0,11,5.021,13.429,13.429,0,0,0,8.8-2.857,17.2,17.2,0,0,0,5.236-8.094,44.444,44.444,0,0,0,1.751-13.759,47.847,47.847,0,0,0-1.09-11.447,24.3,24.3,0,0,0-3.006-7.2,13.077,13.077,0,0,0-4.856-4.526,14.315,14.315,0,0,0-6.839-1.569,13.425,13.425,0,0,0-8.77,2.841,17.19,17.19,0,0,0-5.253,8.077,44.326,44.326,0,0,0-1.767,13.825q0,13.644,4.79,19.689h0Zm4.393-36.041a7.619,7.619,0,0,1,6.541-3.469A8.287,8.287,0,0,1,419,504.538q2.792,3.931,2.792,15.89,0,11.892-2.792,15.857t-6.888,3.964q-4.1,0-6.887-3.948t-2.792-15.873q0-11.925,3.072-16.352h0Zm58.98-5.187a13.675,13.675,0,0,0-9.365-3.2,14.91,14.91,0,0,0-12.19,5.55q-5.187,6.375-5.186,20.415,0,12.555,4.691,18.021a15.232,15.232,0,0,0,12.123,5.467,14.754,14.754,0,0,0,7.8-2.081,14.324,14.324,0,0,0,5.4-6,18.622,18.622,0,0,0,1.966-8.473,15.718,15.718,0,0,0-4.179-11.315,13.484,13.484,0,0,0-10.126-4.377,14.129,14.129,0,0,0-6.508,1.586,13.777,13.777,0,0,0-5.252,4.856q0.066-7.267,1.685-11.2a13.536,13.536,0,0,1,4.426-5.979,8.167,8.167,0,0,1,4.989-1.586,7.87,7.87,0,0,1,5.946,2.544,11.192,11.192,0,0,1,2.246,5.087l5.914-.462A13.608,13.608,0,0,0,464.486,498.889Zm-17.095,22.15a9.171,9.171,0,0,1,6.838-2.89,8.792,8.792,0,0,1,6.739,2.89,11.2,11.2,0,0,1,2.676,7.912q0,5.22-2.709,8.259a8.389,8.389,0,0,1-6.475,3.039,9.128,9.128,0,0,1-4.922-1.47,9.716,9.716,0,0,1-3.65-4.278,13.777,13.777,0,0,1-1.3-5.88A10.422,10.422,0,0,1,447.391,521.039Z"/>
  <path id="Elips_1" data-name="Elips 1" class="cls-2" d="M289,465C172.468,465,78,370.532,78,254S172.468,43,289,43s211,94.468,211,211S405.532,465,289,465Zm0-337A126,126,0,1,1,163,254,126,126,0,0,1,289,128Z"/>
  <path id="MALİYE_BAKANLIĞI" data-name="MALİYE  BAKANLIĞI" class="cls-1" d="M171.715,186.139l-38.108-30.4,48.437,17.455,4.263-5.343-27.089-42.9,37.467,29.892,4.556-5.711-44.765-35.713-6.358,7.97,22.6,35.566q3.441,5.4,5.276,8.107-2.736-1.083-8.332-3.149L129.508,147.22l-7.114,8.916,44.765,35.714Zm46.19-47.31-1.219-18.409,21.923-9.632L251.7,123.98l7.9-3.473-44.493-43-7.474,3.284,2.9,61.275Zm-2.7-42.847a73.046,73.046,0,0,0-1.574-11.255q3.085,3.722,8.5,9.238L233.98,106.08l-17.774,7.81Zm91.425,23.745-0.1-6.758-28.2.4-0.716-50.5-7.577.107,0.811,57.26Zm19.042,5.287L339.713,69.5l-7.347-1.858-14.039,55.518Zm15.469-58.783,2.145-8.483-8.445-2.136L332.7,64.1Zm21.029,75.455,12.769-20.626,36.8-16.036-7.506-4.647-18.294,8.475q-6.084,2.85-10.64,5.313,0.258-5.538.151-11.3l-0.511-20.622-7.838-4.853,1.391,39.682L355.729,137.7Zm50.374,55.695,5.592-3.793L398.4,164.494l16.131-10.943,17.785,26.217,5.56-3.772-17.785-26.217,14.515-9.846,18.99,28,5.593-3.794-23.245-34.266-47.39,32.148Zm8.9,77.2a38.175,38.175,0,0,0-.395,9.28,17.539,17.539,0,0,0,1.891,6.614,14.484,14.484,0,0,0,4.666,4.929,16.714,16.714,0,0,0,7.154,2.768,13.921,13.921,0,0,0,8.986-1.5,14.961,14.961,0,0,0,6.3-7.149,14.229,14.229,0,0,0,4.305,6.712,12.989,12.989,0,0,0,6.552,2.976,14.1,14.1,0,0,0,7.8-1.125,13.539,13.539,0,0,0,6.2-5.367,26.594,26.594,0,0,0,3.25-10.163l3.121-21.257-56.658-8.319Zm52.044-6.769-1.663,11.324a32.631,32.631,0,0,1-2.058,8.5,6.922,6.922,0,0,1-3.5,3.434,9.211,9.211,0,0,1-5.165.623,8.215,8.215,0,0,1-4.735-2.175,8.028,8.028,0,0,1-2.188-4.724,27.594,27.594,0,0,1,.393-7.246l1.8-12.252Zm-23.807-3.495-1.924,13.1a28.234,28.234,0,0,1-2.164,8.151,8.656,8.656,0,0,1-3.947,4.02,9.511,9.511,0,0,1-5.745.815,9.964,9.964,0,0,1-4.609-1.822,8.3,8.3,0,0,1-2.73-3.322,12.369,12.369,0,0,1-.91-4.556,32.731,32.731,0,0,1,.479-5.141L430.2,261.46ZM412.7,308.875l11.393,14.51-12.665,20.322-18.252-3.5-4.566,7.327,61,10.4L453.924,351l-36.968-48.953Zm26.4,33.853a73.071,73.071,0,0,0,7.651,8.4Q442.1,349.8,434.526,348.3l-16.621-3.317,10.269-16.476ZM376.01,356.774L387.3,373.1l-2.513,12.85L351.526,373.7l-8.225,5.687,40,13.755-6.565,32.748,8.451-5.842,7.24-39.532,16.15,23.359,6.234-4.31-32.568-47.1Zm-39.741,24.043-2.416,18.289-23.386,5.145-10.25-15.5-8.431,1.855L326.979,441.5l7.974-1.754,9.175-60.653Zm-5.76,42.543a73.136,73.136,0,0,0-.664,11.345q-2.3-4.255-6.519-10.725l-9.244-14.205,18.961-4.171Zm-54.076-35.025-9.3,44.028-20.125-50.246L239.4,380.51,227.56,436.538l7.109,1.5,9.295-43.989L264.1,444.259l7.606,1.607,11.839-56.029Zm-79.314-34.9L193.288,359l23.233,15.988L187.889,416.6l6.242,4.3L226.6,373.719Zm-13.5-16.558-43.925,36.742,4.862,5.812,43.925-36.741Zm-47.776-45.749,9.994-3.719a24.8,24.8,0,0,1,6.269,5.253,25.412,25.412,0,0,1,5.127,8.345,23.756,23.756,0,0,1,1.39,10.9,16.873,16.873,0,0,1-4.5,9.864,27.955,27.955,0,0,1-11.089,6.94,29.958,29.958,0,0,1-11.562,1.969,19.834,19.834,0,0,1-6.569-1.411,16.762,16.762,0,0,1-6.031-4.278,23.249,23.249,0,0,1-4.616-7.869,20.044,20.044,0,0,1-1.343-7.92,13.158,13.158,0,0,1,1.845-6.521,21.18,21.18,0,0,1,5.326-5.4l-4.141-5.753a24.877,24.877,0,0,0-7.274,7.333,18.631,18.631,0,0,0-2.508,9.332,29.948,29.948,0,0,0,2.031,11.227,31.527,31.527,0,0,0,8.567,12.942,23.258,23.258,0,0,0,13.6,5.674,35.44,35.44,0,0,0,15.844-2.167,32.894,32.894,0,0,0,13.089-8.621,23.879,23.879,0,0,0,6.162-13.4,32.515,32.515,0,0,0-1.961-15.63,34.191,34.191,0,0,0-6.356-10.639,42.834,42.834,0,0,0-10.3-8.463l-19.916,7.411,8.5,22.721,6.3-2.343ZM98.152,317.261a7.653,7.653,0,0,1,2.859,4.042,6.729,6.729,0,0,1,.293,4.538,6.6,6.6,0,0,1-2.96,3.415l1.676,4.5a11.3,11.3,0,0,0,5.8-5.973,13.481,13.481,0,0,0-5.576-14.93,11.34,11.34,0,0,0-8.276-.734l1.676,4.5A6.478,6.478,0,0,1,98.152,317.261Zm56.815-66.391-57.264.4,0.053,7.578,57.264-.4Z"/>
  <path id="T.C." class="cls-1" d="M242.922,283.31V232.8h18.945v-6.757h-45.39V232.8h18.867V283.31h7.578Zm31.753,0V275.3h-8.008v8.008h8.008Zm52.808-9.179A16.3,16.3,0,0,1,316.7,277.8a18.569,18.569,0,0,1-9.727-2.695,15.859,15.859,0,0,1-6.621-8.144,34.929,34.929,0,0,1-2.129-12.754,34.2,34.2,0,0,1,1.8-11,16.706,16.706,0,0,1,6.231-8.5,18.506,18.506,0,0,1,11.035-3.165,15.405,15.405,0,0,1,9.531,2.852q3.789,2.852,5.781,9.1l7.461-1.758a22.728,22.728,0,0,0-8.164-12.3,23.48,23.48,0,0,0-14.453-4.375,28.415,28.415,0,0,0-13.887,3.457,23.419,23.419,0,0,0-9.726,10.117,33.746,33.746,0,0,0-3.418,15.606A38.953,38.953,0,0,0,293.44,269.6a23.53,23.53,0,0,0,8.828,10.918q5.8,3.771,15.059,3.77a23.624,23.624,0,0,0,15.136-4.9q6.192-4.9,8.575-14.239l-7.578-1.914Q331.9,270.459,327.483,274.131Zm36.792,9.179V275.3h-8.008v8.008h8.008Z"/>
</svg>
