<svg xmlns="http://www.w3.org/2000/svg" width="74" height="274" viewBox="0 0 74 274">
  <defs>
    <style>
      .cls-1 {
        fill: #fff;
        fill-rule: evenodd;
      }
    </style>
  </defs>
  <path id="MARKALAR" class="cls-1" d="M53.532,251.9v-2.954q-24.891-5.319-26.719-5.648t-2.766-.445v-0.094A5.834,5.834,0,0,0,25,242.626q0.481-.1.926-0.223t0.832-.246c0.258-.085.465-0.152,0.621-0.2l17.391-6.492v-1.313l-17.484-14.39q-2.484-1.758-2.754-1.922a4.449,4.449,0,0,0-.48-0.258v-0.094q2.7,0.75,5.25,1.313l24.234,5.156v-2.977l-33.609-7.148v3.609l17.625,14.485a36.4,36.4,0,0,0,3.023,2.133v0.14a15.287,15.287,0,0,0-3.258.867L19.922,241.56v3.211Zm0-35.719v-3.446l-9.961-5.859V192.528l9.961-1.617v-3.164l-33.609,5.625v3.07Zm-12.75-10.852q-14.555-8.413-15.527-8.929a14.089,14.089,0,0,0-1.348-.657l-0.516-.211v-0.093a18.869,18.869,0,0,0,2.414-.164l14.977-2.3v12.351Zm12.75-22.312v-3.094L38.86,176.8V173.45a5.018,5.018,0,0,1,1.125-3.492,6.777,6.777,0,0,1,3.469-1.828l10.078-2.484v-3.3L42.8,165.083q-3.7.914-4.57,3.211H38.133a11.381,11.381,0,0,0-3.059-7.383,9.212,9.212,0,0,0-6.9-2.812,7.894,7.894,0,0,0-6.082,2.332,9.33,9.33,0,0,0-2.168,6.6v8.883Zm-17.437-6.8L22.711,173.38v-5.836a6.437,6.437,0,0,1,1.547-4.664,5.513,5.513,0,0,1,4.148-1.594,6.894,6.894,0,0,1,5.625,2.508,10.577,10.577,0,0,1,2.063,6.914v5.508Zm17.438-20.438v-3.093l-16.781-3.539v-0.094l1.172-.633,15.609-10.594v-3.82L36.469,145.911,19.922,127.442v4.149l15.3,16.734,0.516,0.492v0.094l-15.82-3.351v3.117Zm0-22.968v-3.446l-9.961-5.859V109.161l9.961-1.617V104.38l-33.609,5.625v3.07Zm-12.75-10.852q-14.555-8.413-15.527-8.93a14.257,14.257,0,0,0-1.348-.656l-0.516-.211v-0.094a18.689,18.689,0,0,0,2.414-.164l14.977-2.3v12.352Zm12.75-22.312V83.1l-2.812-.586v13.43l-30.8-6.516v3.117Zm0-18.141V78.06L43.571,72.2V57.856l9.961-1.617V53.075L19.922,58.7v3.07ZM40.782,70.653q-14.555-8.414-15.527-8.93a14.07,14.07,0,0,0-1.348-.656l-0.516-.211V60.763a18.779,18.779,0,0,0,2.414-.164l14.977-2.3V70.653Zm12.75-22.312V45.247L38.86,42.13V38.778a5.019,5.019,0,0,1,1.125-3.492,6.775,6.775,0,0,1,3.469-1.828l10.078-2.484v-3.3L42.8,30.411q-3.7.914-4.57,3.211H38.133a11.38,11.38,0,0,0-3.059-7.383,9.212,9.212,0,0,0-6.9-2.812,7.9,7.9,0,0,0-6.082,2.332,9.331,9.331,0,0,0-2.168,6.6v8.883Zm-17.437-6.8L22.711,38.708V32.872a6.438,6.438,0,0,1,1.547-4.664,5.515,5.515,0,0,1,4.148-1.594,6.894,6.894,0,0,1,5.625,2.508,10.576,10.576,0,0,1,2.063,6.914v5.508Z"/>
</svg>
