<?xml version="1.0" ?>
<svg
    id="Layer_1"
    style="enable-background:new 0 0 512 512; fill: #7efff7;"
    version="1.1"
    viewBox="0 0 512 512"
    xml:space="preserve"
    xmlns="http://www.w3.org/2000/svg"
    xmlns:xlink="http://www.w3.org/1999/xlink">
    <path d="M351.5,339.3c-18.8-4.1-41.3,3.1-49.4,20.6c-4.7,10.1-5.4,23.9-15.6,28.4c-7.3,3.3-15.7-0.4-22.7-4.3  c-34.4-19.2-103.4-156.4-98.2-195.5c1-7.9,3.2-16.9,10.1-20.8c9.7-5.5,21.2,2.2,32.1,4.4c18.9,4,38-9.8,46-27.3  c8-17.5,7.1-37.8,4.4-56.9c-3.2-22.3-9.2-45.2-24-62.1c-42.2-48-104.5,0.4-129.4,40.9C88.8,92.8,80,122.7,75.8,152.8  C66.7,217,182,446.4,239,477.5c26.7,14.6,55.9,25.3,86.2,28c47.4,4.2,123.4-16.9,110.1-79.4c-4.7-22-19.5-40.5-35.5-56.3  C386,356.2,370.3,343.4,351.5,339.3z" id="XMLID_1_"/>
</svg>
