<?xml version="1.0" encoding="UTF-8"?>
<svg xmlns="http://www.w3.org/2000/svg" xmlns:xlink="http://www.w3.org/1999/xlink" width="676" height="280" viewBox="0 0 676 280">
<defs>
    <style>
      .cls-1 {
        fill-rule: evenodd;
        fill: #fff;
      }
    </style>
  </defs>
  <path id="v" class="cls-1" d="M559.278,194.612q0,20.605,9.521,32.226t26.123,11.621q16.8,0,32.813-12.4v9.57a58.445,58.445,0,0,1-34.668,11.035q-19.336,0-31.25-13.867T549.9,193.635q0-21.875,12.451-36.865t32.373-14.99q18.651,0,28.613,13.086t9.961,35.742v4H559.278Zm56.348-35.059q-7.716-9.57-21.29-9.57-14.062,0-23.291,9.424t-11.376,27h64.257Q623.341,169.123,615.626,159.553ZM246.583,119.026a7.5,7.5,0,0,1-7.422-7.617,6.6,6.6,0,0,1,2.295-5.225,7.606,7.606,0,0,1,5.127-2,7.974,7.974,0,0,1,5.322,1.953,6.574,6.574,0,0,1,2.295,5.274A7.669,7.669,0,0,1,246.583,119.026ZM201.172,96.174h8.985V244.221h-8.985V96.174ZM108.5,246.662q-29.689,0-47.315-19.726t-17.627-51.27q0-33.494,18.115-53.662t49.463-20.166q28.32,0,45.85,19.385t17.529,50.83q0,34.767-17.968,54.688T108.5,246.662Zm41.259-119.384q-14.794-16.65-40.283-16.651-24.415,0-40.185,17.676T53.516,174.592q0,28.908,14.941,46.045T108.3,237.776q25.977,0,41.114-16.944t15.136-47.216Q164.551,143.929,149.756,127.278ZM251.172,244.221h-8.984v-100h8.984v100Zm185.793-15.4c48.608-13.044,51.239-119.3,122.051-127.341l0.984,16.7c-56.625,12.321-67.842,123.7-135,125.767C294.377,247.949,267,36.322,267,36.322l14.776-2.329C290.51,84.209,328.8,257.843,436.965,228.816Z"/>
</svg>
