<?xml version="1.0" encoding="UTF-8"?>
<svg xmlns="http://www.w3.org/2000/svg" width="512" height="512" viewBox="0 0 512 512">
<defs>
    <style>
      .cls-1 {
        fill: #444;
        fill-rule: evenodd;
      }
    </style>
  </defs>
  <path id="Elips_1" data-name="Elips 1" class="cls-1" d="M256,508C116.824,508,4,395.176,4,256S116.824,4,256,4,508,116.824,508,256,395.176,508,256,508ZM360,292a30,30,0,0,0-30-30H313.666a76.949,76.949,0,0,1-115.332,0H182a30,30,0,0,0-30,30v82H360V292ZM256,144a67,67,0,1,1-67,67A67,67,0,0,1,256,144Z"/>
</svg>
