<?xml version="1.0" ?><svg style="enable-background:new 0 0 48 48;" version="1.1" viewBox="0 0 48 48" xml:space="preserve" xmlns="http://www.w3.org/2000/svg" xmlns:xlink="http://www.w3.org/1999/xlink"><g id="Icons"><g><polyline points="    23.42356,27.8604 23.42356,30.82995 23.42356,34.70782 24.04076,38.2014 24.64631,34.70782 24.64631,30.82995 24.64631,27.8604       " style="fill:none;stroke:#303030;stroke-width:0.7;stroke-linecap:round;stroke-linejoin:round;stroke-miterlimit:10;"/><g><path d="M32.07599,27.8604c0.01165-0.06987,0.01165-0.15139,0.01165-0.22126     c0-0.42486-0.08614-0.84832-0.25289-1.23913c-0.16218-0.38011-0.39908-0.72738-0.69259-1.01821     c-0.23667-0.23451-0.50619-0.42112-0.79873-0.57863c-0.28076-0.15117-0.6116-0.20974-0.91018-0.32769     c-0.85262-0.33682-1.68048-0.84181-2.26322-1.55976c-0.28369-0.34951-0.22959-0.68625-0.22959-1.10939     c0-0.27924,0-0.55847,0-0.83771c0-0.34425,0-0.68849,0-1.03274c0-0.38233,0-0.76466,0-1.14699c0-0.39348,0-0.78696,0-1.18044     c0-0.3777,0-0.75539,0-1.13309c0-0.33498,0-0.66997,0-1.00495c0-0.26534,0-0.53068,0-0.79601     c0-0.19328,0.0002-0.38655-0.00083-0.57982c-0.00065-0.12266,0.09685-0.23687,0.16307-0.33527     c0.07736-0.11494,0.16176-0.22516,0.25274-0.32966c0.18028-0.20708,0.38651-0.39153,0.61333-0.54633     c0.17555-0.11982,0.36237-0.22271,0.55608-0.31003c0.16925-0.0763,0.3527-0.10984,0.53186-0.15409     c0.17634-0.04355,0.33802-0.11698,0.48116-0.2304c0.19146-0.1517,0.34085-0.35496,0.42694-0.58366     c0.05612-0.1491,0.08493-0.30804,0.08493-0.46734c0-0.73365-0.60555-1.3392-1.3392-1.3392h-1.77008h-5.93908h-1.72351     c-0.72547,0.00001-1.33919,0.61368-1.3392,1.3392c0,0.53217,0.33858,1.02578,0.82866,1.22925     c0.08814,0.03659,0.18037,0.06335,0.27445,0.07942c0.26853,0.04587,0.51314,0.17092,0.74668,0.31026     c0.22445,0.13392,0.43375,0.29317,0.62059,0.47605c0.12948,0.12674,0.24785,0.26475,0.35407,0.41152     c0.09196,0.12706,0.24022,0.2958,0.23921,0.45874c-0.00166,0.26663-0.00096,0.53329-0.00096,0.79994     c0,0.29237,0,0.58474,0,0.87711c0,0.35356,0,0.70711,0,1.06067c0,0.3872,0,0.77439,0,1.16159c0,0.39329,0,0.78658,0,1.17987     c0,0.37184,0,0.74368,0,1.11552c0,0.32284,0,0.64568,0,0.96852c0,0.2463,0,0.4926,0,0.73889     c0,0.26511,0.02975,0.49533-0.13128,0.72311c-0.60677,0.85828-1.59592,1.49327-2.58207,1.82488     c-0.55897,0.15139-1.04807,0.44252-1.44401,0.82681c-0.57062,0.58226-0.93162,1.38579-0.93162,2.25918     c0,0.06987,0,0.15139,0.01165,0.22126H32.07599z" style="fill:#E52046;"/><path d="     M32.07599,27.8604c0.01165-0.06987,0.01165-0.15139,0.01165-0.22126c0-0.42486-0.08614-0.84832-0.25289-1.23913     c-0.16218-0.38011-0.39908-0.72738-0.69259-1.01821c-0.23667-0.23451-0.50619-0.42112-0.79873-0.57863     c-0.28076-0.15117-0.6116-0.20974-0.91018-0.32769c-0.85262-0.33682-1.68048-0.84181-2.26322-1.55976     c-0.28369-0.34951-0.22959-0.68625-0.22959-1.10939c0-0.27924,0-0.55847,0-0.83771c0-0.34425,0-0.68849,0-1.03274     c0-0.38233,0-0.76466,0-1.14699c0-0.39348,0-0.78696,0-1.18044c0-0.3777,0-0.75539,0-1.13309c0-0.33498,0-0.66997,0-1.00495     c0-0.26534,0-0.53068,0-0.79601c0-0.19328,0.0002-0.38655-0.00083-0.57982c-0.00065-0.12266,0.09685-0.23687,0.16307-0.33527     c0.07736-0.11494,0.16176-0.22516,0.25274-0.32966c0.18028-0.20708,0.38651-0.39153,0.61333-0.54633     c0.17555-0.11982,0.36237-0.22271,0.55608-0.31003c0.16925-0.0763,0.3527-0.10984,0.53186-0.15409     c0.17634-0.04355,0.33802-0.11698,0.48116-0.2304c0.19146-0.1517,0.34085-0.35496,0.42694-0.58366     c0.05612-0.1491,0.08493-0.30804,0.08493-0.46734c0-0.73365-0.60555-1.3392-1.3392-1.3392h-1.77008h-5.93908h-1.72351     c-0.72547,0.00001-1.33919,0.61368-1.3392,1.3392c0,0.53217,0.33858,1.02578,0.82866,1.22925     c0.08814,0.03659,0.18037,0.06335,0.27445,0.07942c0.26853,0.04587,0.51314,0.17092,0.74668,0.31026     c0.22445,0.13392,0.43375,0.29317,0.62059,0.47605c0.12948,0.12674,0.24785,0.26475,0.35407,0.41152     c0.09196,0.12706,0.24022,0.2958,0.23921,0.45874c-0.00166,0.26663-0.00096,0.53329-0.00096,0.79994     c0,0.29237,0,0.58474,0,0.87711c0,0.35356,0,0.70711,0,1.06067c0,0.3872,0,0.77439,0,1.16159c0,0.39329,0,0.78658,0,1.17987     c0,0.37184,0,0.74368,0,1.11552c0,0.32284,0,0.64568,0,0.96852c0,0.2463,0,0.4926,0,0.73889     c0,0.26511,0.02975,0.49533-0.13128,0.72311c-0.60677,0.85828-1.59592,1.49327-2.58207,1.82488     c-0.55897,0.15139-1.04807,0.44252-1.44401,0.82681c-0.57062,0.58226-0.93162,1.38579-0.93162,2.25918     c0,0.06987,0,0.15139,0.01165,0.22126H32.07599z" style="fill:none;stroke:#303030;stroke-width:0.7;stroke-linecap:round;stroke-linejoin:round;stroke-miterlimit:10;"/><line style="fill:none;stroke:#303030;stroke-width:0.7;stroke-linecap:round;stroke-linejoin:round;stroke-miterlimit:10;" x1="22.45071" x2="22.45071" y1="14.59187" y2="19.19416"/><line style="fill:none;stroke:#303030;stroke-width:0.7;stroke-linecap:round;stroke-linejoin:round;stroke-miterlimit:10;" x1="22.45071" x2="22.45071" y1="20.44336" y2="21.10083"/></g></g></g></svg>