<svg xmlns="http://www.w3.org/2000/svg" width="74" height="448" viewBox="0 0 74 448">
  <defs>
    <style>
      .cls-1 {
        fill: #fff;
        fill-rule: evenodd;
      }
    </style>
  </defs>
  <path id="REKLAM_AJANSLARI" data-name="REKLAM AJANSLARI" class="cls-1" d="M52.532,425.325v-3.094L37.86,419.114v-3.351a5.018,5.018,0,0,1,1.125-3.492,6.771,6.771,0,0,1,3.469-1.829l10.078-2.484v-3.305L41.8,407.4q-3.7.913-4.57,3.21H37.133a11.38,11.38,0,0,0-3.059-7.382,9.213,9.213,0,0,0-6.9-2.813,7.9,7.9,0,0,0-6.082,2.332,9.331,9.331,0,0,0-2.168,6.6v8.883Zm-17.437-6.8-13.383-2.836v-5.836a6.439,6.439,0,0,1,1.547-4.664,5.516,5.516,0,0,1,4.148-1.593,6.9,6.9,0,0,1,5.625,2.507,10.58,10.58,0,0,1,2.063,6.915v5.507Zm17.438-20.437V381.005l-2.789-.563v13.993l-12.7-2.7V379.481l-2.789-.585V391.13l-12.539-2.672v-13.2l-2.789-.586v16.312Zm0-23.531v-3.094l-16.781-3.539v-0.094l1.172-.633,15.609-10.594v-3.82L35.469,364.692,18.922,346.224v4.148l15.3,16.734,0.516,0.493v0.093l-15.82-3.351v3.117Zm0-26.907V331.106l-2.812-.585V343.95l-30.8-6.515v3.117Zm0-18.14v-3.446l-9.961-5.859V305.864l9.961-1.617v-3.164l-33.609,5.625v3.07Zm-12.75-10.852q-14.555-8.413-15.527-8.93a14.257,14.257,0,0,0-1.348-.656l-0.516-.211v-0.093a18.7,18.7,0,0,0,2.414-.165l14.977-2.3v12.351Zm12.75-22.312V293.4q-24.891-5.321-26.719-5.649t-2.766-.445v-0.094A5.726,5.726,0,0,0,24,287.079q0.481-.1.926-0.223t0.832-.246c0.258-.085.465-0.152,0.621-0.2l17.391-6.492v-1.313l-17.484-14.39q-2.484-1.758-2.754-1.922a4.449,4.449,0,0,0-.48-0.258v-0.094q2.7,0.751,5.25,1.313l24.234,5.156v-2.976l-33.609-7.149v3.61L36.547,276.38a36.154,36.154,0,0,0,3.023,2.133v0.14a15.239,15.239,0,0,0-3.258.868l-17.391,6.492v3.211Zm0-48.914v-3.446l-9.961-5.859V223.786l9.961-1.617v-3.164L18.922,224.63v3.07Zm-12.75-10.852q-14.555-8.414-15.527-8.93A14.257,14.257,0,0,0,22.907,227l-0.516-.211v-0.094a18.689,18.689,0,0,0,2.414-.164l14.977-2.3v12.352Zm12.609-19.547a6.5,6.5,0,0,0,.48-1.6,9.75,9.75,0,0,0,.246-1.864,8.8,8.8,0,0,0-2.742-6.855q-2.742-2.5-9.141-3.879l-22.313-4.758v3.094l22.453,4.781q4.781,1.008,6.879,2.719a5.774,5.774,0,0,1,2.1,4.734,6.519,6.519,0,0,1-.269,1.629,3.84,3.84,0,0,1-.645,1.442Zm0.141-15.609v-3.446l-9.961-5.859V177.778l9.961-1.617V173l-33.609,5.625v3.07Zm-12.75-10.852q-14.555-8.413-15.527-8.929a14.089,14.089,0,0,0-1.348-.657l-0.516-.211v-0.093a18.869,18.869,0,0,0,2.414-.164l14.977-2.3v12.351Zm12.75-22.312v-3l-27.164-5.789-1.969-.3v-0.117a12.046,12.046,0,0,0,2.086-.8l27.047-13.547v-2.719l-33.609-7.148v3.07l25.992,5.531,2.883,0.446v0.093a15.159,15.159,0,0,0-2.2.938L18.922,158.138v3.023Zm-1.453-34.172a17.534,17.534,0,0,0,1.5-4.055,18.581,18.581,0,0,0,.539-4.383,13.43,13.43,0,0,0-1.16-5.8,8.6,8.6,0,0,0-3.27-3.75,9,9,0,0,0-4.828-1.3,8.11,8.11,0,0,0-4.524,1.312,19.207,19.207,0,0,0-4.547,4.8,17.76,17.76,0,0,1-3.75,4.055,6.467,6.467,0,0,1-3.75,1.078,5.551,5.551,0,0,1-4.453-2.028,8.024,8.024,0,0,1-1.711-5.355,12.375,12.375,0,0,1,1.781-6.8l-3.164-.609a19.375,19.375,0,0,0-1.383,7.148,11.657,11.657,0,0,0,2.59,7.84,8.363,8.363,0,0,0,6.668,3.035,8.854,8.854,0,0,0,4.746-1.324,16.664,16.664,0,0,0,4.441-4.512,19.817,19.817,0,0,1,3.879-4.3,5.981,5.981,0,0,1,3.574-1.136,5.469,5.469,0,0,1,4.465,1.945,8.431,8.431,0,0,1,1.605,5.508,14.131,14.131,0,0,1-.715,4.383,14.323,14.323,0,0,1-1.746,3.7Zm1.453-24.656V92.888L49.719,92.3v13.429l-30.8-6.515v3.117Zm0-18.141V87.849l-9.961-5.859V67.646l9.961-1.617V62.864L18.922,68.489v3.07ZM39.782,80.442q-14.555-8.414-15.527-8.93a14.1,14.1,0,0,0-1.348-.656l-0.516-.211V70.552a18.779,18.779,0,0,0,2.414-.164l14.977-2.3V80.442ZM52.532,58.13V55.036L37.86,51.919V48.567a5.019,5.019,0,0,1,1.125-3.492,6.775,6.775,0,0,1,3.469-1.828l10.078-2.484v-3.3L41.8,40.2q-3.7.914-4.57,3.211H37.133a11.381,11.381,0,0,0-3.059-7.383,9.212,9.212,0,0,0-6.9-2.812,7.9,7.9,0,0,0-6.082,2.332,9.331,9.331,0,0,0-2.168,6.6v8.883Zm-17.437-6.8L21.711,48.5V42.661A6.437,6.437,0,0,1,23.258,38,5.515,5.515,0,0,1,27.407,36.4a6.894,6.894,0,0,1,5.625,2.508,10.577,10.577,0,0,1,2.063,6.914v5.508ZM52.532,30.9V27.8L18.922,20.677v3.117Z"/>
</svg>
