<svg id="Grup_2" data-name="Grup 2" xmlns="http://www.w3.org/2000/svg" xmlns:xlink="http://www.w3.org/1999/xlink" width="1920" height="540" viewBox="0 0 1920 540">
  <defs>
    <style>
      .cls-1 {
        opacity: 0.6;
        fill: url(#linear-gradient);
      }

      .cls-10, .cls-11, .cls-12, .cls-13, .cls-14, .cls-15, .cls-16, .cls-17, .cls-2, .cls-20, .cls-3, .cls-4, .cls-5, .cls-6, .cls-8, .cls-9 {
        fill-rule: evenodd;
      }

      .cls-12, .cls-17, .cls-2, .cls-7 {
        opacity: 0.2;
      }

      .cls-2 {
        fill: url(#linear-gradient-2);
      }

      .cls-3 {
        fill: url(#linear-gradient-3);
      }

      .cls-4 {
        fill: url(#linear-gradient-4);
      }

      .cls-5 {
        fill: url(#linear-gradient-5);
      }

      .cls-6 {
        fill: url(#linear-gradient-6);
      }

      .cls-7 {
        fill: url(#linear-gradient-7);
      }

      .cls-18, .cls-8 {
        opacity: 0.4;
      }

      .cls-8 {
        fill: url(#linear-gradient-8);
      }

      .cls-10, .cls-11, .cls-19, .cls-20, .cls-21, .cls-9 {
        opacity: 0.6;
      }

      .cls-9 {
        fill: url(#linear-gradient-9);
      }

      .cls-10 {
        fill: url(#linear-gradient-10);
      }

      .cls-11 {
        fill: url(#linear-gradient-11);
      }

      .cls-12 {
        fill: url(#linear-gradient-12);
      }

      .cls-13 {
        fill: url(#linear-gradient-13);
      }

      .cls-14 {
        fill: url(#linear-gradient-14);
      }

      .cls-15 {
        fill: url(#linear-gradient-15);
      }

      .cls-16 {
        fill: url(#linear-gradient-16);
      }

      .cls-17 {
        fill: url(#linear-gradient-17);
      }

      .cls-18 {
        fill: url(#linear-gradient-18);
      }

      .cls-19 {
        fill: url(#linear-gradient-19);
      }

      .cls-20 {
        fill: url(#linear-gradient-20);
      }

      .cls-21 {
        fill: url(#linear-gradient-21);
      }
    </style>
    <linearGradient id="linear-gradient" x1="690" y1="540" x2="1230" gradientUnits="userSpaceOnUse">
      <stop offset="0" stop-color="#26a69a"/>
      <stop offset="1" stop-color="#26c6da"/>
    </linearGradient>
    <linearGradient id="linear-gradient-2" x1="1104.91" y1="1064.112" x2="335.531" y2="294.733" gradientUnits="userSpaceOnUse">
      <stop offset="0" stop-color="#26c6da"/>
      <stop offset="1" stop-color="#26a69a"/>
    </linearGradient>
    <linearGradient id="linear-gradient-3" x1="420.486" y1="356.969" x2="1037.142" y2="973.625" xlink:href="#linear-gradient-2"/>
    <linearGradient id="linear-gradient-4" x1="414.312" y1="383.469" x2="960.968" y2="930.125" xlink:href="#linear-gradient-2"/>
    <linearGradient id="linear-gradient-5" x1="407" y1="422.625" x2="872.375" y2="888" xlink:href="#linear-gradient-2"/>
    <linearGradient id="linear-gradient-6" x1="415.704" y1="460.188" x2="804.765" y2="849.25" xlink:href="#linear-gradient-2"/>
    <linearGradient id="linear-gradient-7" x1="500.939" y1="915.844" x2="759.155" y2="1174.06" xlink:href="#linear-gradient-2"/>
    <linearGradient id="linear-gradient-8" x1="1011.798" y1="506.281" x2="1181.111" y2="675.594" xlink:href="#linear-gradient-2"/>
    <linearGradient id="linear-gradient-9" x1="522" y1="384.531" x2="618.969" y2="481.5" xlink:href="#linear-gradient-2"/>
    <linearGradient id="linear-gradient-10" x1="323.281" y1="405.938" x2="377.594" y2="460.25" xlink:href="#linear-gradient-2"/>
    <linearGradient id="linear-gradient-11" x1="445.875" y1="314.625" x2="415.188" y2="283.938" xlink:href="#linear-gradient-2"/>
    <linearGradient id="linear-gradient-12" x1="1589.72" y1="189.797" x2="1151.75" y2="-248.172" xlink:href="#linear-gradient-2"/>
    <linearGradient id="linear-gradient-13" x1="1581.19" y1="208.785" x2="1133.84" y2="-238.566" xlink:href="#linear-gradient-2"/>
    <linearGradient id="linear-gradient-14" x1="1583.19" y1="163.328" x2="1209.47" y2="-210.391" xlink:href="#linear-gradient-2"/>
    <linearGradient id="linear-gradient-15" x1="1583.81" y1="122.624" x2="1265.75" y2="-195.436" xlink:href="#linear-gradient-2"/>
    <linearGradient id="linear-gradient-16" x1="1575.22" y1="88.472" x2="1309.34" y2="-177.409" xlink:href="#linear-gradient-2"/>
    <linearGradient id="linear-gradient-17" x1="1403.5" y1="-179.97" x2="1237.19" y2="-346.28" xlink:href="#linear-gradient-2"/>
    <linearGradient id="linear-gradient-18" x1="1237.31" y1="187.264" x2="1128.25" y2="78.204" xlink:href="#linear-gradient-2"/>
    <linearGradient id="linear-gradient-19" x1="1499.855" y1="40.875" x2="1562.324" y2="103.344" xlink:href="#linear-gradient-2"/>
    <linearGradient id="linear-gradient-20" x1="1675.25" y1="26.125" x2="1640.25" y2="-8.875" xlink:href="#linear-gradient-2"/>
    <linearGradient id="linear-gradient-21" x1="1640.345" y1="98.875" x2="1660.126" y2="118.656" xlink:href="#linear-gradient-2"/>
  </defs>
  <rect id="Dikdörtgen_1" data-name="Dikdörtgen 1" class="cls-1" width="1920" height="540"/>
  <path id="Şekil_5" data-name="Şekil 5" class="cls-2" d="M627.814,1064.93c218.2-23.3,56.8-280.248,294.434-254.118s192.672-311.285,143.532-383.24C883.2,160.237,611.829,335.583,425.384,545.351,256.138,735.769,327.389,1097,627.814,1064.93Z"/>
  <path id="Şekil_4" data-name="Şekil 4" class="cls-3" d="M553.688,970.153c191.358,36.057,120.034-223.614,315.244-140.586s243.418-215.215,220.1-288.941C1002.36,266.713,726.889,346.264,514.756,476.8,322.19,595.3,290.218,920.515,553.688,970.153Z"/>
  <path id="Şekil_3" data-name="Şekil 3" class="cls-4" d="M532.391,927.049c169.629,31.96,106.4-198.231,279.448-124.628s215.781-190.785,195.1-256.142C930.119,303.458,685.926,373.98,497.88,489.7,327.181,594.748,298.839,883.046,532.391,927.049Z"/>
  <path id="Şekil_2" data-name="Şekil 2" class="cls-5" d="M507.562,885.417c144.363,27.209,90.557-168.776,237.827-106.112S929.031,616.868,911.434,561.223c-65.378-206.737-273.2-146.692-433.239-48.165C332.919,602.5,308.8,847.954,507.562,885.417Z"/>
  <path id="Şekil_1" data-name="Şekil 1" class="cls-6" d="M499.79,847.057c120.672,22.745,75.7-141.089,198.8-88.705s153.505-135.791,138.8-182.307c-54.649-172.823-228.366-122.628-362.14-40.263C353.809,610.549,333.644,815.74,499.79,847.057Z"/>
  <circle id="Elips_5" data-name="Elips 5" class="cls-7" cx="630.047" cy="1044.952" r="129.141"/>
  <path id="Elips_4" data-name="Elips 4" class="cls-8" d="M1011.82,588.6a84.672,84.672,0,1,1,82.3,86.957A84.653,84.653,0,0,1,1011.82,588.6Z"/>
  <path id="Elips_3" data-name="Elips 3" class="cls-9" d="M521.986,431.669a48.515,48.515,0,1,1,47.16,49.818A48.508,48.508,0,0,1,521.986,431.669Z"/>
  <path id="Elips_2" data-name="Elips 2" class="cls-10" d="M323.266,432.349a27.172,27.172,0,1,1,26.414,27.9A27.164,27.164,0,0,1,323.266,432.349Z"/>
  <path id="Elips_1" data-name="Elips 1" class="cls-11" d="M415.2,298.863a15.344,15.344,0,1,1,14.916,15.761A15.344,15.344,0,0,1,415.2,298.863Z"/>
  <path id="Şekil_5-2" data-name="Şekil 5" class="cls-12" d="M1315.87-275.289c-118.89,76.3,48.11,177.759-96.21,231.2s-21.14,234.792,27.9,262.065c182.19,101.329,287.83-77.862,334.66-252.4C1624.74-192.859,1479.55-380.348,1315.87-275.289Z"/>
  <path id="Şekil_4-2" data-name="Şekil 4" class="cls-13" d="M1385.87-242.075c-50.45,9.606-395.32,184.265-184.3,401.648,128.88,132.761,264.51,7.553,348.98-128.762C1627.22-92.929,1555.42-274.359,1385.87-242.075Z"/>
  <path id="Şekil_3-2" data-name="Şekil 3" class="cls-14" d="M1410.56-223.391c-106.87,30.486-4.09,144.824-124.93,152.312s-69.19,172.061-38.44,203.738c114.25,117.692,234.48,6.7,309.35-114.139C1624.51-91.173,1557.68-265.365,1410.56-223.391Z"/>
  <path id="Şekil_2-2" data-name="Şekil 2" class="cls-15" d="M1436.85-206.572c-90.94,25.939-3.45,123.294-106.3,129.653s-58.87,146.473-32.69,173.445c97.25,100.211,199.56,5.735,263.28-97.13C1618.97-93.981,1562.07-242.286,1436.85-206.572Z"/>
  <path id="Şekil_1-2" data-name="Şekil 1" class="cls-16" d="M1452.39-186.721c-76.02,21.681-2.89,103.066-88.86,108.38S1314.33,44.1,1336.21,66.648c81.3,83.773,166.82,4.8,220.07-81.189C1604.62-92.6,1557.06-216.573,1452.39-186.721Z"/>
  <path id="Elips_5-2" data-name="Elips 5" class="cls-17" d="M1395.68-298.294a83.138,83.138,0,0,1-40.16,110.5,83.144,83.144,0,0,1-110.5-40.19,83.121,83.121,0,0,1,40.16-110.5A83.148,83.148,0,0,1,1395.68-298.294Z"/>
  <circle id="Elips_4-2" data-name="Elips 4" class="cls-18" cx="1182.78" cy="132.734" r="54.53"/>
  <circle id="Elips_3-2" data-name="Elips 3" class="cls-19" cx="1531.09" cy="72.109" r="31.25"/>
  <path id="Elips_2-2" data-name="Elips 2" class="cls-20" d="M1673.59,1.217a17.491,17.491,0,1,1-23.25-8.455A17.489,17.489,0,0,1,1673.59,1.217Z"/>
  <circle id="Elips_1-2" data-name="Elips 1" class="cls-21" cx="1650.235" cy="108.766" r="9.895"/>
</svg>
