<?xml version="1.0" encoding="UTF-8"?>
<svg xmlns="http://www.w3.org/2000/svg" xmlns:xlink="http://www.w3.org/1999/xlink" width="878" height="249" viewBox="0 0 878 249">
<defs>
    <style>
      .cls-1 {
        fill-rule: evenodd;
        fill: #999;
      }
    </style>
  </defs>
  <path id="verizone" class="cls-1" d="M754.373,121.077q0,12.576,5.806,19.667t15.927,7.093q10.24,0,20.007-7.569v5.84a35.609,35.609,0,0,1-21.138,6.735q-11.79,0-19.054-8.463t-7.264-23.9q0-13.35,7.592-22.5a24.441,24.441,0,0,1,19.738-9.148q11.373,0,17.446,7.986t6.074,21.813v2.444H754.373Zm34.356-21.4q-4.7-5.84-12.98-5.841a19.034,19.034,0,0,0-14.2,5.751q-5.626,5.752-6.937,16.479h39.18Q793.433,105.522,788.729,99.681Zm-59.483,16.151q0-21.991-15.838-21.992a18.36,18.36,0,0,0-14.469,6.466,23.436,23.436,0,0,0-5.657,16v35.044H687.8V90.324h5.478v11.085h0.238q6.668-12.574,20.84-12.575,9.883,0,15.124,6.586t5.24,18.8v37.13h-5.478V115.832Zm-85.385,37.011q-13.338,0-21.108-8.791t-7.77-22.856q0-15.2,8.127-23.78t21.406-8.582q13.041,0,20.6,8.523t7.562,23.6q0,14.246-7.711,23.065T643.861,152.843Zm17.178-52.03q-5.925-6.973-16.761-6.973-10.778,0-17.178,7.271t-6.4,20.2q0,11.979,6.252,19.251t17.089,7.271q11.015,0,16.97-7.152t5.954-19.847Q666.964,107.787,661.039,100.813Zm-56.3,45.534v5.006H556.452v-2.086L596.941,95.33H559.37V90.324h46.86v1.49l-40.847,54.533h39.358Zm-65.259,6.079a4.559,4.559,0,0,1-3.394-1.4,4.714,4.714,0,0,1-1.369-3.427,4.59,4.59,0,0,1,1.369-3.427,4.66,4.66,0,0,1,3.394-1.341,4.868,4.868,0,0,1,3.454,1.341,4.5,4.5,0,0,1,1.429,3.427,4.615,4.615,0,0,1-1.429,3.427A4.76,4.76,0,0,1,539.482,152.426ZM513.4,74.947a4.578,4.578,0,0,1-4.525-4.649,4.032,4.032,0,0,1,1.4-3.189,4.639,4.639,0,0,1,3.126-1.222,4.856,4.856,0,0,1,3.245,1.192,4.011,4.011,0,0,1,1.4,3.218A4.679,4.679,0,0,1,513.4,74.947ZM492.8,94.078q-7.206,0-12.088,7.45t-4.882,21.158v28.667h-5.359V90.324h5.359v13.529h0.238a22.217,22.217,0,0,1,6.609-10.847,15.632,15.632,0,0,1,10.48-3.874,16.226,16.226,0,0,1,6.073,1.073v5.841A10.735,10.735,0,0,0,492.8,94.078ZM416.02,140.744q5.805,7.094,15.927,7.093,10.24,0,20.007-7.569v5.84a35.609,35.609,0,0,1-21.138,6.735q-11.79,0-19.054-8.463t-7.264-23.9q0-13.35,7.592-22.5a24.442,24.442,0,0,1,19.738-9.148q11.373,0,17.447,7.986t6.073,21.813v2.444H410.214Q410.214,133.653,416.02,140.744Zm33.612-24.674q-0.357-10.548-5.061-16.389T431.59,93.84a19.034,19.034,0,0,0-14.2,5.751q-5.627,5.752-6.937,16.479h39.18Zm-80.979,35.283L350.9,105.4c-53.124,13.534-64.309,118.989-128.268,120.96C97.048,230.229,70.728,26.08,70.728,26.08l14.206-2.246c8.4,48.441,45.208,215.94,149.2,187.939,46.732-12.583,49.261-115.086,117.34-122.842l0.065,1.1,17.83,48.867a39.409,39.409,0,0,1,1.846,6.377h0.238a37.08,37.08,0,0,1,1.726-6.139l18.757-48.811h5.954l-24.234,61.029h-5Zm147.548,0h-5.478V90.324H516.2v61.029Z"/>
</svg>
