<svg xmlns="http://www.w3.org/2000/svg" width="564" height="148" viewBox="0 0 564 148">
  <defs>
    <style>
      .cls-1 {
        fill: #d9d9d8;
        fill-rule: evenodd;
      }
    </style>
  </defs>
  <path id="Elips_1" data-name="Elips 1" class="cls-1" d="M540,55h0c0,0.552-10.074,1-22.5,1S495,55.552,495,55h0c-0.552,0-1-3.582-1-8s0.448-8,1-8h0c0-.552,10.074-1,22.5-1S540,38.448,540,39h0c0.552,0,1,3.582,1,8S540.552,55,540,55Zm-68.561,71.981-34.16-55.754v55.754a42.948,42.948,0,0,1-7.93.732,40.993,40.993,0,0,1-7.808-.732V39.263a37.9,37.9,0,0,1,7.2-.732,41.034,41.034,0,0,1,7.564.732l33.916,55.876V39.263a51.233,51.233,0,0,1,8.418-.732,36.06,36.06,0,0,1,7.32.732v87.718a38.737,38.737,0,0,1-7.076.732A41.8,41.8,0,0,1,471.439,126.981Zm-73.81-11.407a31.9,31.9,0,0,1-11.834,9.455,44.408,44.408,0,0,1-34.16,0,31.866,31.866,0,0,1-11.834-9.455,40.879,40.879,0,0,1-6.893-14.274,67.869,67.869,0,0,1-2.257-18,69.252,69.252,0,0,1,2.257-18.117A41.46,41.46,0,0,1,339.8,50.731a31.64,31.64,0,0,1,11.834-9.516,44.408,44.408,0,0,1,34.16,0,31.672,31.672,0,0,1,11.834,9.516,41.531,41.531,0,0,1,6.893,14.457A69.337,69.337,0,0,1,406.779,83.3a67.951,67.951,0,0,1-2.257,18A40.949,40.949,0,0,1,397.629,115.574ZM383.05,60.613q-4.575-7.563-14.213-7.564-19.155,0-19.154,30.256t19.032,30.256q18.909,0,18.91-30.256Q387.625,68.178,383.05,60.613Zm-93.324,50.4c27.567,0.086,34.239,1.01,34.239,1.01a70,70,0,0,1,.708,7.277,39.12,39.12,0,0,1-.729,7.669A0.464,0.464,0,0,0,324,127s-13.655,1-30.5,1-30.5-1-30.5-1l37-72V54.988c-30.106-.108-34.1-1.2-34.1-1.2a67.979,67.979,0,0,1-.644-6.843c0-2.335.569-6.721,0.569-6.721S269.5,39,295.5,39c30.99,0,30.271,1.727,30.271,1.727Zm-49.109,16.7a56.3,56.3,0,0,1-9.028-.732,55.56,55.56,0,0,1-.732-8.906,57.87,57.87,0,0,1,.732-9.028,55.56,55.56,0,0,1,8.906-.732,57.87,57.87,0,0,1,9.028.732,57.148,57.148,0,0,1,.732,8.906,56.3,56.3,0,0,1-.732,9.028A57.148,57.148,0,0,1,240.617,127.713Zm-44.163-.732V39.263a55.56,55.56,0,0,1,8.906-.732,57.87,57.87,0,0,1,9.028.732v87.718a57.148,57.148,0,0,1-8.906.732A56.3,56.3,0,0,1,196.454,126.981Zm17.2-95.892a31.933,31.933,0,0,1-4.087.488q-2.136.123-3.965,0.122-1.71,0-3.9-.122a31.972,31.972,0,0,1-4.148-.488,31.941,31.941,0,0,1-.488-3.721q-0.123-1.767-.122-3.6,0-1.707.122-3.538a31.87,31.87,0,0,1,.488-3.782q1.95-.366,4.087-0.549t3.843-.183q1.83,0,4.026.183a41.038,41.038,0,0,1,4.148.549,25.077,25.077,0,0,1,.427,3.721q0.06,1.77.061,3.6,0,1.71-.061,3.538A25.209,25.209,0,0,1,213.656,31.089Zm-32.085,96.258q-2.685.243-5.49,0.244a57.045,57.045,0,0,1-9.15-.732L144,86.111l2.928-1.464q1.707-.852,4.148-2.2a25.647,25.647,0,0,0,4.7-3.355,18.419,18.419,0,0,0,3.843-4.88,13.781,13.781,0,0,0,1.586-6.771q0-7.686-4.392-11.285t-11.346-3.6a29.8,29.8,0,0,0-4.88.366v74.054q-2.2.243-4.392,0.427t-4.27.183q-2.076,0-4.392-.122t-4.758-.488V39.263q5.367-.609,10.065-1.037t10.431-.427a72.013,72.013,0,0,1,13.237,1.22,35.779,35.779,0,0,1,11.773,4.331,24.368,24.368,0,0,1,8.479,8.418q3.231,5.307,3.233,13.481a27.648,27.648,0,0,1-1.22,8.6,26.261,26.261,0,0,1-3.111,6.527,26.854,26.854,0,0,1-4.087,4.819,29.009,29.009,0,0,1-4.148,3.233l-2.074,1.342,21.35,37.088Q184.253,127.1,181.571,127.347ZM112,119a33.107,33.107,0,0,1-1,8s-14.327,1-32,1c-27.116,0-31.758-1.118-31.758-1.118L19.22,39.282c1.391-.163,8.131-0.732,9.516-0.732a69.111,69.111,0,0,1,9.76.732L57.65,108.456l19.4-69.174S79.231,38,94.5,38c15.164,0,16.762,1.288,16.762,1.288A49.8,49.8,0,0,1,112,47c0,4.418-.448,8-1,8H90.4L83.945,75H108c0.552,0,1,3.582,1,8s-0.448,8-1,8H78.782l-6.453,20H111A33.107,33.107,0,0,1,112,119ZM534,91h0c0,0.552-7.387,1-16.5,1S501,91.552,501,91h0c-0.552,0-1-3.582-1-8s0.448-8,1-8h0c0-.552,7.387-1,16.5-1S534,74.448,534,75h0c0.552,0,1,3.582,1,8S534.552,91,534,91Zm-39,20c0-.552,10.074-1,22.5-1s22.5,0.448,22.5,1h0c0.552,0,1,3.582,1,8s-0.448,8-1,8h0c0,0.552-10.074,1-22.5,1s-22.5-.448-22.5-1h0c-0.552,0-1-3.582-1-8s0.448-8,1-8h0Z"/>
</svg>
