<svg xmlns="http://www.w3.org/2000/svg" width="136" height="148" viewBox="0 0 136 148">
  <defs>
    <style>
      .cls-1 {
        fill: #263238;
        fill-rule: evenodd;
      }
    </style>
  </defs>
  <path id="veri.zone" class="cls-1" d="M112,110c0,4.418-.448,8-1,8,0,0.552-14.327,1-32,1s-32-.448-32-1a0.339,0.339,0,0,1,.242-0.118L19.22,30.282q2.073-.243,4.758-0.488t4.758-.244a69.111,69.111,0,0,1,9.76.732L57.65,99.456l19.4-69.174c0.144-.022.281-0.034,0.424-0.055A0.617,0.617,0,0,1,77,30c0-.552,7.835-1,17.5-1S112,29.448,112,30a0.994,0.994,0,0,1-.738.288C111.687,31.211,112,34.309,112,38c0,4.418-.448,8-1,8H90.4L83.945,66H108c0.552,0,1,3.582,1,8s-0.448,8-1,8H78.782l-6.453,20H111C111.552,102,112,105.582,112,110Z"/>
</svg>
