<svg id="big_connectors" data-name="big connectors" xmlns="http://www.w3.org/2000/svg" xmlns:xlink="http://www.w3.org/1999/xlink" width="512" height="512" viewBox="0 0 512 512">
  <defs>
    <style>
      .cls-1, .cls-2, .cls-3, .cls-4 {
        fill: none;
      }

      .cls-1 {
        stroke: #7dfdf6;
      }

      .cls-1, .cls-2 {
        stroke-width: 6px;
      }

      .cls-1, .cls-2, .cls-3, .cls-4, .cls-5, .cls-6, .cls-7, .cls-8 {
        fill-rule: evenodd;
      }

      .cls-2, .cls-4 {
        stroke: #2488d5;
      }

      .cls-3 {
        stroke: #7efff7;
      }

      .cls-3, .cls-4 {
        stroke-linejoin: round;
        stroke-width: 8px;
      }

      .cls-5 {
        fill: url(#linear-gradient);
      }

      .cls-6 {
        fill: #fff;
      }

      .cls-7 {
        fill: #7efff7;
      }

      .cls-8 {
        fill: #2488d5;
      }

      .cls-9 {
        fill: url(#linear-gradient-2);
      }
    </style>
    <linearGradient id="linear-gradient" x1="256" y1="342.594" x2="256" y2="168.594" gradientUnits="userSpaceOnUse">
      <stop offset="0" stop-color="#2488d5"/>
      <stop offset="1" stop-color="#7efff7"/>
    </linearGradient>
    <linearGradient id="linear-gradient-2" x1="402" y1="171" x2="402" y2="49" xlink:href="#linear-gradient"/>
  </defs>
  <path id="big_connector_1" data-name="big connector 1" class="cls-1" d="M346,98s-13.726-1.131-17-14c-2.186-8.595,5.724-19.316-14-21s-1.841,17.412-6,26c-4.828,9.971-21.984,2.686-18,17s21.9,1.587,27,19c4.248,14.5-33.924,27.206-21,51"/>
  <path id="big_connector_4" data-name="big connector 4" class="cls-1" d="M358,140l-41,43"/>
  <path id="big_connector_3" data-name="big connector 3" class="cls-1" d="M374,156l-41,43"/>
  <path id="big_connector_2" data-name="big connector 2" class="cls-2" d="M353.989,239.377s13.733-1.057,19,11.13c3.521,8.14-2.592,19.979,17.15,18.518s-1.345-23.6,3.464-28.914,19.623-3.843,13.422-17.345-17.168,12.287-24.964-4.1,18.829-10.354,18.042-20.111-13.929-17.4-9.335-32.938"/>
  <path id="connector_1" data-name="connector 1" class="cls-3" d="M156,226s-40.016-18.131,3-53c22.833-18.509,3.756-33.748-12-16-14.365,16.182-34.3,5.966-32-11,2.938-21.639-6.3-15.824-17-30"/>
  <path id="connector_2" data-name="connector 2" class="cls-4" d="M383,437s-44.353-14.23,1-46c36.73-25.73,4.4-35.048-11-12-15.727,23.541-47.018,13.762-24-22,12.89-20.026-17.906-13.442-30-28"/>
  <path id="db_bg" data-name="db bg" class="cls-5" d="M256,176c16.248,0,104-43.4,104,80,0,122.757-84.9,79-104,79s-104,43.757-104-79C152,132.6,239.752,176,256,176Z"/>
  <path id="v" class="cls-6" d="M311.421,264.029q0,5.136,2.389,8.032a8.041,8.041,0,0,0,6.556,2.9,13.39,13.39,0,0,0,8.234-3.091v2.385A14.734,14.734,0,0,1,319.9,277a9.866,9.866,0,0,1-7.842-3.457q-2.991-3.454-2.99-9.759a13.84,13.84,0,0,1,3.125-9.188,10.09,10.09,0,0,1,8.124-3.736,8.5,8.5,0,0,1,7.18,3.261q2.5,3.262,2.5,8.908v1H311.421Zm14.14-8.738a6.5,6.5,0,0,0-5.342-2.385,7.864,7.864,0,0,0-5.845,2.349,11.233,11.233,0,0,0-2.855,6.73h16.125A10.977,10.977,0,0,0,325.561,255.291Zm-92.612-10.1a1.829,1.829,0,0,1-1.3-.536,1.8,1.8,0,0,1-.564-1.363,1.642,1.642,0,0,1,.576-1.3,1.92,1.92,0,0,1,1.287-.5,2.009,2.009,0,0,1,1.335.487,1.633,1.633,0,0,1,.576,1.314,1.822,1.822,0,0,1-.563,1.339A1.85,1.85,0,0,1,232.949,245.191Zm-11.4-5.695h2.254v36.9h-2.254V239.5ZM198.3,277q-7.449,0-11.873-4.917T182,259.307q0-8.348,4.546-13.374t12.413-5.026a14.833,14.833,0,0,1,11.506,4.831q4.4,4.833,4.4,12.669,0,8.664-4.509,13.629T198.3,277Zm10.355-29.755q-3.713-4.149-10.109-4.149a12.955,12.955,0,0,0-10.085,4.4q-3.958,4.406-3.958,11.537,0,7.2,3.75,11.475a12.64,12.64,0,0,0,10,4.272q6.519,0,10.318-4.223t3.8-11.768Q212.363,251.4,208.65,247.247Zm25.45,29.146h-2.254V251.47H234.1v24.923Zm46.626-3.839c12.2-3.251,12.858-29.734,30.629-31.737l0.247,4.161c-14.21,3.07-17.025,30.83-33.879,31.344-32.78,1-39.651-51.743-39.651-51.743l3.709-.581C243.972,236.513,253.581,279.788,280.726,272.554Z"/>
  <path id="atom_1" data-name="atom 1" class="cls-7" d="M88,76a24,24,0,1,1-24,24A24,24,0,0,1,88,76Zm86.4,105.6"/>
  <path id="atom_2" data-name="atom 2" class="cls-8" d="M401,420a24,24,0,1,1-24,24A24,24,0,0,1,401,420Zm86.4,105.6"/>
  <circle id="big" class="cls-9" cx="402" cy="110" r="61"/>
</svg>
