<?xml version="1.0" ?>
<svg enable-background="new 0 0 512 512" id="Layer_1" version="1.1" viewBox="0 0 512 512" xml:space="preserve" xmlns="http://www.w3.org/2000/svg" xmlns:xlink="http://www.w3.org/1999/xlink">
	<g>
		<path d="M254.8,507.8C117,507.8,6,395.3,6.5,255.2C7.1,117.5,118.4,4.7,257.9,6.2   c136.6,1.5,246.9,113.8,245.6,253.3C502.2,396.5,392.3,507.6,254.8,507.8z M254.7,488.2c124.2,0.5,227.8-100.6,229.2-228.4   c1.5-130.5-102.8-232.8-226.7-234c-125.7-1.2-230.4,100.7-231.1,229C25.4,384.4,127.6,488.2,254.7,488.2z" fill="#F47E04"/>
		<path d="M257.8,398.4c-18.3,0-36.7,0.8-55-0.2c-48.7-2.6-86-42.2-86.2-90.9c-0.1-33.3-0.1-66.7,0-100   c0.2-50.7,40.2-91.1,90.9-91.5c18-0.1,36-0.4,54,0.3c41.3,1.6,78.6,36.4,83.7,77.3c0.5,4.1,0.9,8.3,1.1,12.4   c0.6,11.1,7.9,18.1,19,18.3c5,0.1,10-0.1,15,0c10.2,0.3,18.4,7.5,18.4,17.4c0,25.5,1.4,51-0.7,76.5c-3,36.9-33.7,70.4-69.9,78.2   c-11.4,2.4-22.8,2.4-34.3,2.4c-12,0-24,0-36,0C257.8,398.5,257.8,398.5,257.8,398.4z M257.9,292.8c-16.8,0-33.6,0-50.5,0   c-3.2,0-6.3,0.1-9.2,1.7c-6.6,3.7-10.3,11.2-8.6,18c2,8.3,8.2,13.4,16.9,13.4c34.1,0.1,68.3,0.1,102.4,0c10.6,0,17.9-7,17.9-16.7   c0-9.8-7.2-16.4-18-16.4C291.9,292.8,274.9,292.8,257.9,292.8z M232,189.9c-8.1,0-16.3,0-24.4,0c-0.3,0-0.7,0-1,0   c-10.5,0.2-18.4,7.9-18.2,17.7c0.2,9.7,8.1,17.3,18.2,17.3c17,0.1,33.9,0.1,50.9,0c10.3-0.1,17.9-7.5,18.1-17.4   c0.1-10.2-7.3-17.6-18.1-17.7C248.9,189.8,240.5,189.9,232,189.9z" fill="#F47D01"/>
	</g>
</svg>
