<?xml version="1.0" ?><svg id="Layer_1" style="enable-background:new 0 0 512 512;" version="1.1" viewBox="0 0 512 512" xml:space="preserve" xmlns="http://www.w3.org/2000/svg" xmlns:xlink="http://www.w3.org/1999/xlink"><g><path d="M221.4,81.6C102.4,81.6,6,153.7,6,242.7C6,295.8,40.5,343,93.6,372.3c-5.2,18.1-17.3,40.6-45.3,56.4   c0,0,52.9,13.5,97.9-35.1c23.4,6.5,48.8,10.1,75.3,10.1c119,0,215.4-72.1,215.4-161S340.4,81.6,221.4,81.6z M122.3,208.5   c18.9,0,34.1,15.3,34.1,34.1c0,18.9-15.3,34.1-34.1,34.1c-18.9,0-34.1-15.3-34.1-34.1C88.1,223.8,103.4,208.5,122.3,208.5z    M221.4,276.8c-18.9,0-34.1-15.3-34.1-34.1c0-18.9,15.3-34.1,34.1-34.1s34.1,15.3,34.1,34.1C255.6,261.5,240.3,276.8,221.4,276.8z    M320.6,276.8c-18.9,0-34.1-15.3-34.1-34.1c0-18.9,15.3-34.1,34.1-34.1c18.9,0,34.1,15.3,34.1,34.1   C354.7,261.5,339.4,276.8,320.6,276.8z"/><g><path d="M455,387.8c31-17.1,51-44.6,51-75.5c0-33.8-24-63.5-59.9-80c0.3,3.5,0.4,6.9,0.4,10.4    c0,46.2-23.8,89.4-67,121.6c-17.1,12.8-36.4,23.2-57.2,31.1c17.4,6.8,37.2,10.7,58.1,10.7c15.4,0,30.2-2.1,43.9-5.9    c26.2,28.3,57,20.4,57,20.4C465,411.5,458,398.3,455,387.8z" id="XMLID_1_"/></g></g></svg>