<?xml version="1.0" encoding="UTF-8"?>
<svg xmlns="http://www.w3.org/2000/svg" width="512" height="512" viewBox="0 0 512 512">
<title>İnci Sözlük @Olive</title>
<defs>
    <style>
      .cls-1 {
        fill: #f1c90c;
      }

      .cls-1, .cls-2 {
        fill-rule: evenodd;
      }

      .cls-2 {
        fill: #fff;
      }
    </style>
  </defs>
  <path id="owl" class="cls-1" d="M382,224s30.749,37.1,18,113-48,115-48,115l-35-35-15,15-46-46-45.971,46-14.99-15-34.978,35s-35.228-39.1-47.969-115S130.08,224,130.08,224s-14.99-14.612-14.99-48c0-37.381,31.979-64,31.979-64V48C200.689,98.807,256,102,256,102s55.346-3.193,109-54v64s32,26.619,32,64C397,209.388,382,224,382,224Z"/>
  <path id="inci" class="cls-2" d="M162.441,149.335c7.893,0,13.53-5.074,13.53-12.121s-5.637-12.121-13.53-12.121-13.531,5.074-13.531,12.121S154.548,149.335,162.441,149.335ZM150.32,228.544h24.242V158.073H150.32v70.471Zm40.587,0h24.242V182.315c3.664-3.382,6.2-5.356,10.711-5.356,4.792,0,7.047,2.255,7.047,11.276v40.309h24.242v-43.41c0-17.477-6.483-28.752-21.986-28.752-9.585,0-16.632,4.792-22.269,10.148H212.33l-1.691-8.457H190.907v70.471Zm78.354-35.235c0,23.4,15.5,36.926,35.518,36.926a36.9,36.9,0,0,0,23.678-8.738l-9.584-15.222c-3.1,2.255-6.765,4.51-11.276,4.51-7.61,0-13.53-6.765-13.53-17.476s5.356-17.477,14.376-17.477c2.537,0,5.074.845,8.175,3.382l10.993-14.939c-4.792-4.792-12.121-7.893-20.577-7.893C287.02,156.382,269.261,169.912,269.261,193.309Zm82.3-43.974c7.893,0,13.531-5.074,13.531-12.121s-5.638-12.121-13.531-12.121-13.53,5.074-13.53,12.121S343.671,149.335,351.563,149.335Zm-12.121,79.209h24.242V158.073H339.442v70.471Z"/>
</svg>
