<?xml version="1.0" encoding="UTF-8"?>
<svg xmlns="http://www.w3.org/2000/svg" width="512" height="512" viewBox="0 0 512 512">
<title>Instela @Olive</title>
<defs>
    <style>
      .cls-1 {
        fill: #1da6b7;
      }

      .cls-1, .cls-2 {
        fill-rule: evenodd;
      }

      .cls-2 {
        fill: #bbd746;
      }
    </style>
  </defs>
  <path id="body" class="cls-1" d="M436,438.826V452c-57.791,0-99.2-15.867-118.821-36.594-17.987-19.007-35.206-16.1-35.206-16.1H92.739A14.653,14.653,0,0,1,78.07,384.667L59,162.174a20.028,20.028,0,0,1,13.2-19.029L418.4,48a14.654,14.654,0,0,1,14.669,14.638V384.667A14.653,14.653,0,0,1,418.4,399.3H368.521C368.521,427.235,436,438.826,436,438.826Zm-52.809-73.188A14.654,14.654,0,0,0,397.86,351V116.8a14.654,14.654,0,0,0-14.669-14.638L103.008,172.42c-8.268,2.823-8.8,6.554-8.8,14.638L116.21,351a14.654,14.654,0,0,0,14.669,14.638H240.9V261.71h30.072a30.04,30.04,0,0,1,30.072,30.007v73.921h82.148Z"/>
  <path id="dot" class="cls-2" d="M268.77,191.449a32.2,32.2,0,1,1-32.272,32.2A32.238,32.238,0,0,1,268.77,191.449Z"/>
</svg>
