<?xml version="1.0" encoding="UTF-8"?>
<svg xmlns="http://www.w3.org/2000/svg" width="512" height="512" viewBox="0 0 512 512">
<title>Sahibinden @Olive</title>
<defs>
    <style>
      .cls-1 {
        fill: #fff000;
      }

      .cls-2 {
        fill-rule: evenodd;
      }
    </style>
  </defs>
  <rect id="bg" class="cls-1" width="512" height="512"/>
  <path id="s" class="cls-2" d="M355.117,382.722q34.87-27.268,34.871-68.683,0-43.407-28.229-61.115t-86.346-30.986Q217.291,208.657,202.8,200.8t-14.492-25.559q0-19.705,18.869-29.987t47.551-10.281q64.908,0,67.93,42.838h56.759Q376.7,93,250.807,93q-54.343,0-86.8,24.7t-32.455,62.4q0,41.7,26.115,58.26t82.723,29.986Q297,281.771,315.114,290.192t18.115,28.987q0,20.85-18.568,34.7T260.77,367.729q-79.1,0-79.7-55.4H124.005Q130.041,410,261.374,410,320.246,410,355.117,382.722Z"/>
</svg>
