<?xml version="1.0" encoding="iso-8859-1"?>
<svg version="1.1" id="Capa_1" xmlns="http://www.w3.org/2000/svg" xmlns:xlink="http://www.w3.org/1999/xlink" x="0px" y="0px"
	 viewBox="0 0 418.882 418.882" style="enable-background:new 0 0 418.882 418.882;" xml:space="preserve">
<path style="fill:#D4E1F4;" d="M331.755,296.69c-28.735,0-52.245,23.51-52.245,52.245c0,28.735,23.51,52.245,52.245,52.245
	c28.735,0,52.245-23.51,52.245-52.245C384,320.2,360.49,296.69,331.755,296.69z"/>
<path style="fill:#00BBD3;" d="M415.869,95.025c-3.135-3.657-7.314-6.269-12.539-6.269H96.653L82.547,29.719
	c-1.567-7.314-7.837-12.016-15.151-12.016H15.673C6.792,17.702,0,24.494,0,33.376s6.792,15.673,15.673,15.673h39.184l50.678,213.159
	c1.567,7.314,7.837,12.016,15.151,12.016h243.984c7.314,0,13.584-4.702,15.151-12.016l38.661-154.122
	C419.527,103.384,418.482,98.682,415.869,95.025z"/>
<path style="fill:#D4E1F4;" d="M142.106,296.69c-28.735,0-52.245,23.51-52.245,52.245c0,28.735,23.51,52.245,52.245,52.245
	s52.245-23.51,52.245-52.245C194.351,320.2,170.841,296.69,142.106,296.69z"/>
</svg>
