<?xml version="1.0" encoding="UTF-8"?>
<svg xmlns="http://www.w3.org/2000/svg" width="32" height="32" viewBox="0 0 32 32">
	<defs>
		<style>
			.cls-1{ fill: #101820; }
		</style>
	</defs>
	<title/>
	<g>
		<path class="cls-1" d="M16,22a6,6,0,1,1,6-6A6,6,0,0,1,16,22Zm0-10a4,4,0,1,0,4,4A4,4,0,0,0,16,12Z"/>
		<path class="cls-1" d="M21,31H11a4,4,0,0,1-4-4V24.45a1,1,0,0,1,.63-.92l3.64-1.46A1,1,0,1,1,12,23.93l-3,1.2V27a2,2,0,0,0,2,2H21a2,2,0,0,0,2-2V25.13l-3-1.2a1,1,0,0,1,.74-1.86l3.64,1.46a1,1,0,0,1,.63.92V27A4,4,0,0,1,21,31Z"/>
		<path class="cls-1" d="M9,11a5,5,0,1,1,5-5A5,5,0,0,1,9,11ZM9,3a3,3,0,1,0,3,3A3,3,0,0,0,9,3Z"/>
		<path class="cls-1" d="M8,19.39H5a4,4,0,0,1-4-4V13.64a1,1,0,0,1,.63-.93l3.19-1.25A1,1,0,0,1,6.11,12a1,1,0,0,1-.56,1.3L3,14.32v1.07a2,2,0,0,0,2,2H8a1,1,0,0,1,0,2Z"/>
		<path class="cls-1" d="M23,11a5,5,0,1,1,5-5A5,5,0,0,1,23,11Zm0-8a3,3,0,1,0,3,3A3,3,0,0,0,23,3Z"/>
		<path class="cls-1" d="M27,19.39H24a1,1,0,0,1,0-2h3a2,2,0,0,0,2-2V14.32l-2.55-1a1,1,0,0,1-.56-1.3,1,1,0,0,1,1.29-.57l3.19,1.25a1,1,0,0,1,.63.93v1.75A4,4,0,0,1,27,19.39Z"/>
	</g>
</svg>
