<?xml version="1.0" encoding="UTF-8"?>
<svg xmlns="http://www.w3.org/2000/svg" width="512" height="512" viewBox="0 0 512 512">
<title>Twitter @Olive</title>
<defs>
    <style>
      .cls-1 {
        fill: #28a9e0;
        fill-rule: evenodd;
      }
    </style>
  </defs>
  <path id="bird" class="cls-1" d="M376.828,125.75c1.091,1.034,13.763-1.692,29.076-7.815a83.384,83.384,0,0,0,21.3-12.655,79.468,79.468,0,0,1-34.74,44.446c0.026,0.064.049,0.129,0.075,0.192a106.905,106.905,0,0,0,43.473-12.349,209.97,209.97,0,0,1-37.493,40.638c0.017,0.683.052,1.362,0.052,2.049,0,0.993-.039,1.978-0.075,2.963q0.07,2.774.075,5.564C398.567,311.51,298.993,411,176.163,411A221.474,221.474,0,0,1,59.015,377.691q4.079,0.2,8.206.2a167.018,167.018,0,0,0,101.5-34.184,79.336,79.336,0,0,1-72.4-54.348,103.708,103.708,0,0,0,39.031-1.325,76.266,76.266,0,0,1-67.126-75.677c0-.727.035-1.446,0.055-2.168a75.978,75.978,0,0,0,38.1,10.194c0.106,0,.211-0.007.317-0.008a77.2,77.2,0,0,1-26.961-105.07c0.666,0.867,1.351,1.72,2.031,2.576-0.127-.231-0.245-0.469-0.371-0.7a204.533,204.533,0,0,0,160.38,80.1A79.239,79.239,0,0,1,319.245,101C341.92,101,361.273,111.008,376.828,125.75Z"/>
</svg>
