<?xml version="1.0" encoding="UTF-8"?>
<svg xmlns="http://www.w3.org/2000/svg" width="512" height="512" viewBox="0 0 512 512">
<title>Uludağ Sözlük @Olive</title>
<defs>
    <style>
      .cls-1 {
        fill: #754393;
      }

      .cls-2 {
        fill: #fff;
        fill-rule: evenodd;
      }
    </style>
  </defs>
  <rect id="bg" class="cls-1" width="512" height="512"/>
  <path id="uludag_sozluk" data-name="uludag sozluk" class="cls-2" d="M418.537,260.437c-18.63,8.321-16.436,5.151-16.436,5.151l-6.164-16.483s18.191-4.256,19.445-16.2a22.511,22.511,0,0,1-15.849,6.934c-14.467,0-26.195-15.22-26.195-34s11.728-34,26.195-34a22.536,22.536,0,0,1,15.922,7.008v-4.947H436v59.748A28.63,28.63,0,0,1,418.537,260.437Zm-3.082-63.283a10.227,10.227,0,0,0-8.218-4.707c-6.241,0-11.3,6.688-11.3,14.937s5.059,14.938,11.3,14.938a10.227,10.227,0,0,0,8.218-4.707V197.154Zm-8.218-27.37a22.631,22.631,0,0,1-22.6-22.663h14.381a8.218,8.218,0,1,0,16.436,0h14.381A22.631,22.631,0,0,1,407.237,169.784ZM389.774,303.522l16.436-19.391h25.681l-19.518,20.6,22.6,41.206H410.319l-12.327-25.754-8.218,10.073V345.94H369.229v-85.5l20.545-9.271v52.356Zm-25.681-65.671H343.548v-5.228c-5.12,9.059-23.317,12.264-30.818,5.228s-12.718-22.79-2.054-34.072,31.844-5.151,31.844-5.151c0-18.395-26.708-5.151-26.708-5.151l-5.136-14.422c54.134-20.668,53.417,13.392,53.417,13.392v45.4ZM334.816,209.96c-4.822,0-8.732,3-8.732,6.7s3.91,6.7,8.732,6.7,8.732-3,8.732-6.7S339.638,209.96,334.816,209.96Zm-20.031,46.357a10.3,10.3,0,1,1-10.273,10.3A10.287,10.287,0,0,1,314.785,256.317Zm18.49,10.3a10.273,10.273,0,1,1,10.273,10.3A10.287,10.287,0,0,1,333.275,266.618Zm-14.381,55.628s-0.266,7.211,8.218,7.211,9.245-5.942,9.245-11.331V282.07h21.572v63.87H337.384v-7.211S333.148,348,319.921,348s-21.572-9.786-21.572-19.573V282.07h20.545v40.176Zm-43.145-86.184a25.879,25.879,0,0,1-14.9,4.8c-16.169,0-29.276-15.45-29.276-34.51s13.107-34.51,29.276-34.51a25.873,25.873,0,0,1,14.9,4.8V152.271L296.294,143v94.774H275.749v-1.712Zm0-39.507c-2.127-4.344-5.7-7.2-9.759-7.2-6.524,0-11.813,7.379-11.813,16.482s5.289,16.483,11.813,16.483c4.056,0,7.632-2.854,9.759-7.2V196.555Zm-72.934,34.008s-4.236,9.271-17.464,9.271-21.572-9.786-21.572-19.573V173.905h20.545V214.08s-0.266,7.211,8.218,7.211,9.245-5.941,9.245-11.331V173.905H223.36v63.869H202.815v-7.211Zm-39.036,36.055a10.273,10.273,0,1,1,10.273,10.3A10.287,10.287,0,0,1,163.779,266.618Zm29.79,47.387a33.9,33.9,0,1,1-33.9-34A33.947,33.947,0,0,1,193.569,314.005Zm-23.626-6.181a10.273,10.273,0,1,0-20.545,0v12.362a10.273,10.273,0,1,0,20.545,0V307.824Zm-24.654-30.9a10.3,10.3,0,1,1,10.272-10.3A10.288,10.288,0,0,1,145.289,276.92ZM130.907,152.271L151.452,143v94.774H130.907v-85.5ZM98.035,230.563s-4.236,9.271-17.463,9.271S59,230.048,59,220.261V173.905H79.545V214.08s-0.266,7.211,8.218,7.211,9.245-5.941,9.245-11.331V173.905H118.58v63.869H98.035v-7.211Zm-1.027,95.8c-0.941-9.065-36.976-3.291-30.817-31.935s51.362-7.211,51.362-7.211l-7.191,14.422s-26.44-9.7-21.572,1.03c4.038,8.9,34.167.248,28.763,28.845s-48.28,12.394-54.444,7.211L70.3,324.307S97.949,335.432,97.008,326.367ZM200.76,298.553V283.1H255.2v15.453l-30.817,30.9H255.2V345.94H199.733V327.4L228.5,298.553H200.76Zm85.262,47.387H265.477v-85.5l20.545-9.271V345.94Z"/>
</svg>
