<?xml version="1.0" encoding="UTF-8"?>
<svg xmlns="http://www.w3.org/2000/svg" width="512" height="512" viewBox="0 0 512 512">
<title>Youtube @Olive</title>
<defs>
    <style>
      .cls-1 {
        fill: red;
      }

      .cls-1, .cls-2 {
        fill-rule: evenodd;
      }

      .cls-2 {
        fill: #fff;
      }
    </style>
  </defs>
  <path id="red" class="cls-1" d="M429.886,341.28c-6.4,36-25.639,42.432-92.721,44.933-26.541.99-59.5,1.515-89.665,1.79v-0.255c-30.16-.274-63.125-0.8-89.665-1.786-67.082-2.5-86.321-8.92-92.721-44.847C59.521,309.724,59.038,265.437,59,255.5c0.036-9.937.519-54.224,6.112-85.615,6.4-35.927,25.64-42.35,92.722-44.847,26.54-.987,59.505-1.512,89.665-1.786V123c30.16,0.275,63.124.8,89.665,1.79,67.082,2.5,86.321,8.937,92.721,44.933,5.593,31.452,6.076,75.824,6.112,85.78C435.962,265.456,435.479,309.828,429.886,341.28Z"/>
  <path id="play" class="cls-2" d="M210,200V315l96-59Z"/>
</svg>
